<svg id="ic_jcb" xmlns="http://www.w3.org/2000/svg" xmlns:xlink="http://www.w3.org/1999/xlink" width="40" height="25" viewBox="0 0 40 25">
  <defs>
    <linearGradient id="linear-gradient" x1="-0.575" y1="0.501" x2="2.324" y2="0.501" gradientUnits="objectBoundingBox">
      <stop offset="0" stop-color="#007940"/>
      <stop offset="0.228" stop-color="#00873f"/>
      <stop offset="0.743" stop-color="#40a737"/>
      <stop offset="1" stop-color="#5cb531"/>
    </linearGradient>
    <linearGradient id="linear-gradient-2" x1="0.002" y1="0.5" x2="1.003" y2="0.5" xlink:href="#linear-gradient"/>
    <linearGradient id="linear-gradient-3" x1="-0.628" y1="0.499" x2="2.537" y2="0.499" xlink:href="#linear-gradient"/>
    <linearGradient id="linear-gradient-4" x1="0.002" y1="0.5" x2="1.018" y2="0.5" gradientUnits="objectBoundingBox">
      <stop offset="0" stop-color="#1f286f"/>
      <stop offset="0.475" stop-color="#004e94"/>
      <stop offset="0.826" stop-color="#0066b1"/>
      <stop offset="1" stop-color="#006fbc"/>
    </linearGradient>
    <linearGradient id="linear-gradient-5" x1="-0.006" y1="0.499" x2="0.981" y2="0.499" gradientUnits="objectBoundingBox">
      <stop offset="0" stop-color="#6c2c2f"/>
      <stop offset="0.174" stop-color="#882730"/>
      <stop offset="0.573" stop-color="#be1833"/>
      <stop offset="0.859" stop-color="#dc0436"/>
      <stop offset="1" stop-color="#e60039"/>
    </linearGradient>
  </defs>
  <path id="Path_623" data-name="Path 623" d="M0,0H40V25H0Z" fill="#fafafa" fill-rule="evenodd"/>
  <g id="Group_405" data-name="Group 405">
    <path id="Path_624" data-name="Path 624" d="M13.038,8.926h1.144c.033,0,.11-.011.142-.011a.54.54,0,0,0,.4-.55.56.56,0,0,0-.4-.548.526.526,0,0,0-.142-.012H13.038Z" transform="translate(11 5)" fill="url(#linear-gradient)"/>
    <path id="Path_625" data-name="Path 625" d="M14.051,1.185A2.057,2.057,0,0,0,12.069,3.31V5.517h2.8a1.114,1.114,0,0,1,.2.011c.631.035,1.1.386,1.1.993a.964.964,0,0,1-.9.969v.023a1.085,1.085,0,0,1,1.132,1.028A1.128,1.128,0,0,1,15.13,9.6H12.058v4.32h2.908A2.057,2.057,0,0,0,16.949,11.8V1.185h-2.9Z" transform="translate(11 5)" fill="url(#linear-gradient-2)"/>
    <path id="Path_626" data-name="Path 626" d="M14.585,6.661a.487.487,0,0,0-.4-.5c-.022,0-.076-.012-.109-.012H13.038V7.175h1.035a.285.285,0,0,0,.11-.012A.487.487,0,0,0,14.585,6.661Z" transform="translate(11 5)" fill="url(#linear-gradient-3)"/>
    <path id="Path_627" data-name="Path 627" d="M3.093,1.185A2.057,2.057,0,0,0,1.111,3.31V8.553a3.711,3.711,0,0,0,1.71.478.98.98,0,0,0,1.057-1.05V5.5h1.7V7.97c0,.957-.556,1.74-2.44,1.74A7.825,7.825,0,0,1,1.1,9.441v4.472H4.008a2.058,2.058,0,0,0,1.983-2.125V1.185Z" transform="translate(11 5)" fill="url(#linear-gradient-4)"/>
    <path id="Path_628" data-name="Path 628" d="M8.572,1.185A2.057,2.057,0,0,0,6.59,3.31V6.089a3.761,3.761,0,0,1,2.778-.677,8.3,8.3,0,0,1,1.557.257v.9a3.586,3.586,0,0,0-1.5-.468,1.4,1.4,0,0,0-1.71,1.46,1.393,1.393,0,0,0,1.71,1.459,3.773,3.773,0,0,0,1.5-.467v.9a8.089,8.089,0,0,1-1.557.257A3.756,3.756,0,0,1,6.59,9.03v4.9H9.5a2.057,2.057,0,0,0,1.983-2.125V1.185Z" transform="translate(11 5)" fill="url(#linear-gradient-5)"/>
  </g>
</svg>
