<svg xmlns="http://www.w3.org/2000/svg" width="67.964" height="19.688" viewBox="0 0 67.964 19.688">
  <g id="ic_linepay_2" transform="translate(0 -0.172)">
    <path id="Path_637" data-name="Path 637" d="M11.026,4.446H9.372a.458.458,0,0,0-.46.457V15.13a.459.459,0,0,0,.46.457h1.654a.459.459,0,0,0,.46-.457V4.9a.458.458,0,0,0-.46-.457m-4,8.584H2.572V4.9a.458.458,0,0,0-.46-.457H.46A.458.458,0,0,0,0,4.9V15.13a.459.459,0,0,0,.46.457H7.03a.458.458,0,0,0,.458-.457V13.486a.458.458,0,0,0-.459-.456M31.608,7a.458.458,0,0,0,.46-.456V4.9a.458.458,0,0,0-.46-.457h-6.57a.458.458,0,0,0-.459.457V15.13a.459.459,0,0,0,.46.457h6.57a.459.459,0,0,0,.459-.457V13.486a.458.458,0,0,0-.46-.456H27.152V11.294h4.456a.458.458,0,0,0,.46-.456V9.195a.458.458,0,0,0-.46-.457H27.152V7h4.456ZM22.374,4.446H20.72a.458.458,0,0,0-.46.457v5.918l-4.328-6.15a.573.573,0,0,0-.509-.225.508.508,0,0,0-.078,0H13.69a.458.458,0,0,0-.46.457V15.13a.459.459,0,0,0,.46.457h1.654a.459.459,0,0,0,.46-.457V8.95l4.512,6.413a.543.543,0,0,0,.053.063.459.459,0,0,0,.317.162h1.687a.459.459,0,0,0,.46-.457V4.9a.458.458,0,0,0-.46-.457" fill-rule="evenodd"/>
    <path id="Path_638" data-name="Path 638" d="M66.815,19.86H37.535a1.145,1.145,0,0,1-1.149-1.142V1.314A1.145,1.145,0,0,1,37.534.172h29.28a1.146,1.146,0,0,1,1.15,1.142v17.4a1.146,1.146,0,0,1-1.15,1.141" fill="#08bf5b" fill-rule="evenodd"/>
    <path id="Path_639" data-name="Path 639" d="M45.678,7.85a1.115,1.115,0,0,0-1.112-1.17H43.192V9.02h1.374a1.116,1.116,0,0,0,1.112-1.17m2.093,0a3.138,3.138,0,0,1-3.2,3.12H43.192v2.555a.307.307,0,0,1-.308.306H41.407a.307.307,0,0,1-.308-.306V5.035a.306.306,0,0,1,.308-.306h3.159a3.138,3.138,0,0,1,3.205,3.12m5.81,2.731a1.557,1.557,0,1,0-3.113,0,1.557,1.557,0,1,0,3.113,0m1.963-3.09v6.18a.161.161,0,0,1-.162.161H53.744a.162.162,0,0,1-.163-.161v-.45a2.462,2.462,0,0,1-1.949.793,3.273,3.273,0,0,1-3.127-3.433,3.273,3.273,0,0,1,3.127-3.433,2.466,2.466,0,0,1,1.95.794v-.45a.161.161,0,0,1,.162-.162h1.638a.162.162,0,0,1,.162.162m6.53.008-1.506,3.77L59.011,7.5a.27.27,0,0,0-.25-.166h-1.67a.161.161,0,0,0-.15.222l2.6,6.295-.947,2.371a.161.161,0,0,0,.151.22h1.67a.27.27,0,0,0,.252-.169L64.147,7.55A.161.161,0,0,0,64,7.33H62.326a.27.27,0,0,0-.252.169" fill="#fff" fill-rule="evenodd"/>
  </g>
</svg>
