<svg id="ic_master" xmlns="http://www.w3.org/2000/svg" width="40" height="25" viewBox="0 0 40 25">
  <path id="Path_629" data-name="Path 629" d="M0,0H40V25H0Z" fill="#fafafa" fill-rule="evenodd"/>
  <path id="Path_630" data-name="Path 630" d="M29.508,20.45v.04h.036a.038.038,0,0,0,.02,0,.018.018,0,0,0,.007-.015.017.017,0,0,0-.007-.015.035.035,0,0,0-.02,0h-.036Zm.036-.028a.064.064,0,0,1,.044.013.043.043,0,0,1,.015.035.04.04,0,0,1-.012.03.06.06,0,0,1-.035.015l.048.056h-.037l-.045-.056h-.014v.056h-.032v-.149h.068Zm-.01.2a.125.125,0,1,0-.048-.24.121.121,0,0,0-.075.115.126.126,0,0,0,.075.115.12.12,0,0,0,.049.01Zm0-.285a.16.16,0,0,1,.162.16.154.154,0,0,1-.013.062.166.166,0,0,1-.085.085.16.16,0,0,1-.178-.034.166.166,0,0,1-.035-.05.154.154,0,0,1-.012-.063.157.157,0,0,1,.1-.147.16.16,0,0,1,.064-.013ZM14.67,19.765a.483.483,0,1,1,.484.516A.482.482,0,0,1,14.67,19.765Zm1.29,0v-.806h-.346v.2a.6.6,0,0,0-.5-.236.848.848,0,0,0,0,1.692.6.6,0,0,0,.5-.236v.195h.346Zm11.707,0a.483.483,0,1,1,.483.516A.481.481,0,0,1,27.667,19.765Zm1.29,0V18.313H28.61v.842a.6.6,0,0,0-.5-.236.848.848,0,0,0,0,1.692.6.6,0,0,0,.5-.236v.195h.347v-.805Zm-8.7-.532a.4.4,0,0,1,.4.39h-.827A.412.412,0,0,1,20.26,19.233Zm.007-.314a.847.847,0,0,0,.024,1.692.956.956,0,0,0,.653-.226l-.17-.26a.757.757,0,0,1-.464.17.444.444,0,0,1-.476-.4h1.183q.006-.067.007-.135A.77.77,0,0,0,20.267,18.919Zm4.183.846a.483.483,0,1,1,.484.516A.482.482,0,0,1,24.45,19.765Zm1.29,0v-.806h-.346v.2a.6.6,0,0,0-.5-.236.848.848,0,0,0,0,1.692.6.6,0,0,0,.5-.236v.195h.346Zm-3.246,0a.809.809,0,0,0,.85.846.828.828,0,0,0,.573-.192l-.166-.283a.7.7,0,0,1-.417.145.517.517,0,0,1,0-1.032.692.692,0,0,1,.417.145l.166-.283a.828.828,0,0,0-.573-.192.809.809,0,0,0-.85.846Zm4.466-.846a.47.47,0,0,0-.42.236v-.2H26.2V20.57h.347v-.9c0-.266.113-.414.34-.414a.561.561,0,0,1,.216.04l.107-.33a.73.73,0,0,0-.247-.044Zm-9.286.169a1.176,1.176,0,0,0-.65-.169c-.4,0-.663.2-.663.516,0,.262.193.424.55.475l.163.023c.19.027.28.078.28.169,0,.125-.127.2-.363.2a.842.842,0,0,1-.53-.169L16.3,20.4a1.144,1.144,0,0,0,.69.209c.46,0,.727-.22.727-.526,0-.283-.21-.431-.557-.482l-.163-.024c-.15-.02-.27-.05-.27-.158s.113-.188.3-.188a1.019,1.019,0,0,1,.5.138l.15-.283Zm4.47-.169a.468.468,0,0,0-.42.236v-.2h-.343V20.57h.346v-.9c0-.266.113-.414.34-.414a.569.569,0,0,1,.217.04l.106-.33a.73.73,0,0,0-.246-.044Zm-2.957.04h-.566v-.488h-.35v.488h-.324v.32h.323v.735c0,.374.144.6.554.6a.8.8,0,0,0,.433-.125l-.1-.3a.636.636,0,0,1-.307.091c-.173,0-.23-.108-.23-.27V19.28h.567v-.32Zm-5.18,1.611V19.56a.6.6,0,0,0-.626-.641.615.615,0,0,0-.56.287.583.583,0,0,0-.527-.287.525.525,0,0,0-.467.24v-.2h-.346V20.57h.35v-.893a.375.375,0,0,1,.39-.428c.23,0,.346.152.346.425v.9h.35v-.893a.378.378,0,0,1,.39-.428c.237,0,.35.152.35.425v.9h.35Z" fill="#231f20"/>
  <path id="Path_631" data-name="Path 631" d="M22.824,16.225h-5.25V6.685h5.25Z" fill="#ff5f00"/>
  <path id="Path_632" data-name="Path 632" d="M17.91,11.455A6.081,6.081,0,0,1,20.2,6.685a5.933,5.933,0,0,0-3.708-1.3,6.067,6.067,0,0,0,0,12.134,5.933,5.933,0,0,0,3.708-1.3,6.081,6.081,0,0,1-2.291-4.77" fill="#eb001b"/>
  <path id="Path_633" data-name="Path 633" d="M29.9,11.455a6.034,6.034,0,0,1-6,6.067,5.935,5.935,0,0,1-3.708-1.3,6.11,6.11,0,0,0,0-9.54,5.935,5.935,0,0,1,3.708-1.3,6.033,6.033,0,0,1,6,6.067" fill="#f79e1b"/>
</svg>
