<svg id="ic_visa" xmlns="http://www.w3.org/2000/svg" width="40" height="25" viewBox="0 0 40 25">
  <path id="Path_634" data-name="Path 634" d="M0,0H40V25H0Z" fill="#fafafa" fill-rule="evenodd"/>
  <g id="Group_406" data-name="Group 406">
    <path id="Path_635" data-name="Path 635" d="M18.376,16.854h-1.93l1.207-7.619h1.93Zm7-7.432A4.675,4.675,0,0,0,23.643,9.1c-1.906,0-3.25,1.038-3.257,2.52-.016,1.1.961,1.7,1.692,2.067.747.373,1,.617,1,.949-.007.51-.6.746-1.159.746a3.777,3.777,0,0,1-1.811-.406l-.255-.121-.27,1.71a5.782,5.782,0,0,0,2.154.405c2.025,0,3.344-1.021,3.36-2.6.008-.867-.508-1.531-1.62-2.074-.676-.349-1.09-.584-1.09-.94.008-.325.35-.657,1.113-.657a3.225,3.225,0,0,1,1.438.292l.174.08.263-1.644Zm2.566,4.733c.16-.438.77-2.132.77-2.132-.007.017.16-.445.255-.73l.135.657s.365,1.824.445,2.2H27.94Zm2.383-4.92H28.831a.954.954,0,0,0-1.01.632l-2.867,6.987H26.98l.405-1.143h2.479c.055.267.23,1.143.23,1.143h1.788L30.324,9.235Zm-15.492,0-1.89,5.2-.207-1.053a5.8,5.8,0,0,0-2.67-3.194L11.8,16.846h2.041l3.035-7.61H14.832Z" fill="#00579f"/>
    <path id="Path_636" data-name="Path 636" d="M11.186,9.235H8.079l-.031.154a6.5,6.5,0,0,1,4.687,3.988l-.675-3.5a.8.8,0,0,0-.874-.64Z" fill="#faa61a"/>
  </g>
</svg>
