<svg class="menu-icon-svg-clicked" xmlns="http://www.w3.org/2000/svg" viewBox="0 0 95 95">
  <g id="Group_542" data-name="Group 542" transform="translate(-0.487 -0.154)">
    <circle id="Ellipse_65" data-name="Ellipse 65" cx="47.5" cy="47.5" r="47.5" transform="translate(0.487 0.154)" fill="#ff7300"/>
    <g id="id-card" transform="translate(18.484 24.335)">
      <g id="Group_540" data-name="Group 540" transform="translate(0 0)">
        <path id="Path_651" data-name="Path 651" d="M51.964,106.9H40.641v.611a4.653,4.653,0,0,1-4.649,4.649H22.717a4.653,4.653,0,0,1-4.649-4.649V106.9H6.746A6.745,6.745,0,0,0,0,113.646v25.916a6.745,6.745,0,0,0,6.746,6.746h45.23a6.745,6.745,0,0,0,6.746-6.746V113.646A6.747,6.747,0,0,0,51.964,106.9ZM12.4,121.458a6.515,6.515,0,0,1-.18-.647h0a4.712,4.712,0,0,1-.012-2.085,4.621,4.621,0,0,1,1.21-2.133,5.989,5.989,0,0,1,1.126-.935,4.941,4.941,0,0,1,1.09-.563h0a3.852,3.852,0,0,1,.994-.192,4.09,4.09,0,0,1,2.492.527,3.167,3.167,0,0,1,1.21,1.126s2.013.144,1.33,4.241a3.263,3.263,0,0,1-.18.647c.407-.036.875.192.431,1.773-.323,1.15-.635,1.474-.863,1.5a4.973,4.973,0,0,1-3.019,3.726,3.349,3.349,0,0,1-2.217,0A4.9,4.9,0,0,1,12.8,124.7c-.228-.024-.539-.347-.863-1.5C11.526,121.649,12.005,121.41,12.4,121.458ZM17,137.513H7.177c.048-4.074-.108-6.254,2.528-7.213a22.562,22.562,0,0,0,3.834-1.857l1.845,5.847.252.791.827-2.348c-1.905-2.66.144-2.78.5-2.78h0c.359,0,2.4.132.5,2.78l.827,2.348.252-.791,1.845-5.847a22.562,22.562,0,0,0,3.834,1.857c2.648.959,2.48,3.139,2.528,7.213Zm35.118-4.349H32.41v-2.516H52.12Zm0-5.3H32.41v-2.516H52.12Zm0-5.308H32.41v-2.516H52.12Z" transform="translate(0 -100.598)" fill="#fff"/>
        <path id="Path_652" data-name="Path 652" d="M171.908,63.622h13.264a2.408,2.408,0,0,0,2.408-2.408V59.572a2.408,2.408,0,0,0-2.408-2.408h-.755V56.145a1.846,1.846,0,0,0-1.845-1.845h-8.064a1.846,1.846,0,0,0-1.845,1.845v1.018h-.755a2.408,2.408,0,0,0-2.408,2.408v1.641A2.408,2.408,0,0,0,171.908,63.622Z" transform="translate(-149.191 -54.3)" fill="#fff"/>
      </g>
    </g>
  </g>
</svg>
