<svg class="menu-icon-svg ycn" xmlns="http://www.w3.org/2000/svg" viewBox="0 0 95 95">
  <g id="Group_BIHIS" data-name="Group BIHIS" transform="translate(-0.487 -0.154)">
    <g id="Ellipse_BIHIS" data-name="Ellipse BHIS" transform="translate(0.487 0.154)" fill="none" stroke="#036" stroke-width="1">
      <circle cx="47.5" cy="47.5" r="47.5" stroke="none"/>
      <circle cx="47.5" cy="47.5" r="47" fill="none"/>
    </g>
    <g id="shopping-list" transform="translate(18.487 16.798)">
      <g id="Group_BIHIS" data-name="Group BIHIS" transform="translate(0 2.356)">
        <path id="Path_662BHS" data-name="Path 662BHS" d="M58.179,11.445a2.26,2.26,0,0,0-1.494-1.059L23.553,2.4a2.244,2.244,0,0,0-2.547,1.435L8.376,35.917l4.216,1.536L24.561,6.947l28.788,7.346c-1.8,5.574-6.076,17.207-10.177,28.039C39.6,51.783,37.539,55.019,33.628,55.68a.023.023,0,0,1-.009-.016c-7.992,1.12-7.849-9.069-7.849-9.069L.246,36.285c-1.814,11.5,7.02,14.262,7.02,14.262l18.688,8.485a14.485,14.485,0,0,0,6.092,1.249C40.6,60.08,43.6,53.87,47.37,43.92,52.811,29.542,58.333,13.43,58.387,13.26A2.22,2.22,0,0,0,58.179,11.445Z" transform="translate(0 -2.356)" fill="#036"/>
        <path id="Path_663BHS" data-name="Path 663BHS" d="M279.422,133.379a2.243,2.243,0,1,0,1.181-4.328l-9.724-3a2.244,2.244,0,1,0-1.182,4.329Z" transform="translate(-236.346 -111.351)" fill="#036"/>
        <path id="Path_664BHS" data-name="Path 664BHS" d="M234.927,204.532a2.247,2.247,0,0,0,1.418,2.84l9.673,3.457a2.225,2.225,0,0,0,.7.115,2.243,2.243,0,0,0,.722-4.371l-9.67-3.455A2.247,2.247,0,0,0,234.927,204.532Z" transform="translate(-207.045 -179.275)" fill="#036"/>
        <path id="Path_665BHS" data-name="Path 665BHS" d="M206.63,282.321a2.241,2.241,0,1,0-1.4,4.259l9.694,3.442a2.161,2.161,0,0,0,.7.113,2.243,2.243,0,0,0,.7-4.375Z" transform="translate(-179.599 -249.112)" fill="#036"/>
        <path id="Path_666BHS" data-name="Path 666BHS" d="M206.989,104.517a2.42,2.42,0,1,1-2.489,2.419A2.455,2.455,0,0,1,206.989,104.517Z" transform="translate(-180.317 -92.436)" fill="#036"/>
        <path id="Path_667BHS" data-name="Path 667BHS" d="M177.22,180.572a2.419,2.419,0,1,1-2.489,2.418A2.454,2.454,0,0,1,177.22,180.572Z" transform="translate(-154.069 -159.497)" fill="#036"/>
        <path id="Path_668BHS" data-name="Path 668BHS" d="M145.47,259.039a2.42,2.42,0,1,1-2.489,2.422A2.456,2.456,0,0,1,145.47,259.039Z" transform="translate(-126.073 -228.686)" fill="#036"/>
      </g>
    </g>
  </g>
</svg>
