<svg xmlns="http://www.w3.org/2000/svg" viewBox="0 0 23.125 28.462">
  <g id="trash" transform="translate(-48)">
    <path id="Path_640" data-name="Path 640" d="M69.346,5.337H66.678V1.779A1.779,1.779,0,0,0,64.9,0H54.226a1.779,1.779,0,0,0-1.779,1.779V5.337H49.779A1.779,1.779,0,0,0,48,7.115V8.894H71.125V7.115A1.779,1.779,0,0,0,69.346,5.337ZM56,5.337V3.558H63.12V5.337Z" transform="translate(0 0)" fill="#d8d8d9"/>
    <path id="Path_641" data-name="Path 641" d="M80,208.01a1.779,1.779,0,0,0,1.779,1.779h16.01a1.778,1.778,0,0,0,1.778-1.778h0V192H80Zm13.341-11.563a.889.889,0,1,1,1.779,0v8.894a.889.889,0,0,1-1.779,0Zm-4.447,0a.889.889,0,1,1,1.779,0v8.894a.889.889,0,0,1-1.779,0Zm-4.447,0a.889.889,0,1,1,1.779,0v8.894a.889.889,0,0,1-1.779,0Z" transform="translate(-30.221 -181.327)" fill="#d8d8d9"/>
  </g>
</svg>
