<svg id="圖層_2" data-name="圖層 2" xmlns="http://www.w3.org/2000/svg" width="112.431" height="84.824" viewBox="0 0 112.431 84.824">
  <g id="_Layer_" data-name="&lt;Layer&gt;" transform="translate(0 0)">
    <path id="Path_570" data-name="Path 570" d="M2.971,17.09a18.22,18.22,0,0,1,11.08-4.45c6.48-.12,15,18,5.07,23.91s-7.75-11.08-8.49-14.69-5.22-1-5.22-1Z" transform="translate(85.785 0.007)" fill="#331832"/>
    <path id="Path_571" data-name="Path 571" d="M102.491,54.9s-4,.68-12.15,8.71c-7.51,7.4-16.62-1.7-19.26,1.76-4.43,5.79-10.09,9.63-13.66,4.38-1.06-1.55-.67-5.51,3.87-5.8,3-.2,2.41-8.32,6-10.62,7.36-4.65,8-18.22,23.7-18.56C99.511,34.59,102.491,54.9,102.491,54.9Z" transform="translate(-47.005 0.007)" fill="#e06b52"/>
    <path id="Path_572" data-name="Path 572" d="M10.994,56.32S22.364,70.6,24.8,70.64s8.48-1.64,8.88,1.62-6.74,6.4-11.19,4.84S-.016,65.78-.016,65.78Z" transform="translate(78.731 0.007)" fill="#e06b52"/>
    <path id="Path_573" data-name="Path 573" d="M95.513,34.17S82.183,26,83.663,15.53s-3.48-6.81-4.39-3.53-2.41,18.43,7.86,23.6S95.513,34.17,95.513,34.17Z" transform="translate(-61.858 0.007)" fill="#331832"/>
    <path id="Path_574" data-name="Path 574" d="M33.031,15s9,3.28,7.72,13.17S27.521,37.85,22,32.63,16.271,12,33.031,15Z" transform="translate(52.894 0.007)" fill="#ef8062"/>
    <path id="Path_575" data-name="Path 575" d="M23.077,23.7c-.13.72.16,1.38.65,1.47s1-.42,1.14-1.15-.16-1.39-.65-1.48S23.207,23,23.077,23.7Z" transform="translate(64.469 0.007)" fill="#331832"/>
    <path id="Path_576" data-name="Path 576" d="M30.79,22.28c-.14.73.16,1.39.65,1.48s1-.42,1.14-1.15-.16-1.39-.66-1.48S30.92,21.56,30.79,22.28Z" transform="translate(49.045 0.007)" fill="#331832"/>
    <path id="Path_577" data-name="Path 577" d="M90.589,34.65a4.21,4.21,0,0,0-1.9,5.6C90.379,44,97.859,58,79.5,65.78c-21.5,9.15-46.93-3.86-51.68-6.57C19.2,54.3,14.669,25.11,47.569,33c15,3.61,26.16-8.73,26.16-8.73S79.869,35.64,90.589,34.65Z" transform="translate(-0.784 0.007)" fill="#ef8062"/>
    <path id="Path_578" data-name="Path 578" d="M25.617,22a6.83,6.83,0,0,0-.14-3.07c-.46-1.77.14-3.24,1.78-2.79s1,2,1,3.67-.68,4.41-1.7,3.89S25.117,23.31,25.617,22Z" transform="translate(58.708 0.007)" fill="#ffc8bd"/>
    <path id="Path_579" data-name="Path 579" d="M28.953,54a12.91,12.91,0,0,0,0-6.35c-.88-3.65-1-7.82-2.49-8.69s-.86,5-1.37,6.91a12.64,12.64,0,0,0-.36,7.13c.82,2.93-.58,6.24.84,6.59S28.183,59.32,28.953,54Z" transform="translate(58.682 0.007)" fill="#ffc8bd"/>
    <path id="Path_580" data-name="Path 580" d="M27.793,59.68s6.34,17.11,8.65,17.92,8.56,1.1,7.91,4.32-8.4,4-12.14,1.09-17.82-17.8-17.82-17.8Z" transform="translate(53.622 0.007)" fill="#ef8062"/>
    <path id="Path_581" data-name="Path 581" d="M112.415,53.05s-4,.2-13.1,7.21C91,66.72,83,56.6,80,59.71c-5.08,5.23-11.17,8.37-14.11,2.73-.88-1.67,0-5.55,4.53-5.3,3,.16,3.38-8,7.27-9.83,7.84-3.74,10.14-17.13,25.71-15.61C111.865,32.53,112.415,53.05,112.415,53.05Z" transform="translate(-65.58 0.007)" fill="#ef8062"/>
    <path id="Path_582" data-name="Path 582" d="M68.647,17.33s5,.7,3.09-3.22S61,11.62,54.117,10.88,38.907-4,33.557,1.1s-3.25,16.34,9.94,18.71S68.647,17.33,68.647,17.33Z" transform="translate(9.418 0.007)" fill="#331832"/>
    <path id="Path_583" data-name="Path 583" d="M32.205,33.72s-3.42,1.17-4.15-.45-.27-1.47-.27-1.47-.87,1.66-2.11,1.43-3.59-1.15-3.85-2.52.34-2.69,2.15-1.87,8.73.12,9.59.85S34.565,33.7,32.205,33.72Z" transform="translate(56.51 0.007)" fill="#ffc8bd"/>
    <path id="Path_584" data-name="Path 584" d="M31.23,27.81s-6.85-2-8.26-1.11,2.12,4.35,3.41,4.51S33.16,29.21,31.23,27.81Z" transform="translate(58.135 0.007)" fill="#331832"/>
  </g>
</svg>
