<svg xmlns="http://www.w3.org/2000/svg" width="95" height="95" viewBox="0 0 95 95">
  <g id="Group_541" data-name="Group 541" transform="translate(-0.359 -0.154)">
    <circle id="Ellipse_66" data-name="Ellipse 66" cx="47.5" cy="47.5" r="47.5" transform="translate(0.359 0.154)" fill="#ff7300"/>
    <g id="coupon" transform="translate(16.66 29.811)">
      <path id="Path_648" data-name="Path 648" d="M66.2,108.06a2.082,2.082,0,0,0,.409-1.391v-1.282a2.118,2.118,0,0,0-.418-1.407,1.579,1.579,0,0,0-1.315-.575,1.7,1.7,0,0,0-1.368.575A2.183,2.183,0,0,0,63,105.387v1.282a2.129,2.129,0,0,0,.525,1.391,1.681,1.681,0,0,0,1.361.558A1.615,1.615,0,0,0,66.2,108.06Z" transform="translate(-49.61 -95.454)" fill="#fff"/>
      <path id="Path_649" data-name="Path 649" d="M119.832,168.07a1.656,1.656,0,0,0-1.352.575,2.136,2.136,0,0,0-.48,1.391v1.282a1.983,1.983,0,0,0,.548,1.383,1.721,1.721,0,0,0,1.313.582,1.6,1.6,0,0,0,1.4-.517,2.467,2.467,0,0,0,.357-1.449v-1.282a2.092,2.092,0,0,0-.463-1.391A1.611,1.611,0,0,0,119.832,168.07Z" transform="translate(-92.919 -146.375)" fill="#fff"/>
      <path id="Path_650" data-name="Path 650" d="M0,66v35.072H63.129V66ZM9.778,77.219V75.928a4.984,4.984,0,0,1,1.461-3.612,5.427,5.427,0,0,1,4.033-1.433,5.287,5.287,0,0,1,3.989,1.433,4.9,4.9,0,0,1,1.358,3.612v1.291a4.838,4.838,0,0,1-1.345,3.6A5.32,5.32,0,0,1,15.3,82.231a5.527,5.527,0,0,1-4.069-1.425A4.908,4.908,0,0,1,9.778,77.219Zm3.81,15.271L25.505,73.414l2.632,1.324L16.219,93.814,13.588,92.49Zm18.721-1.542a4.911,4.911,0,0,1-1.381,3.612,5.351,5.351,0,0,1-3.989,1.416A5.481,5.481,0,0,1,22.9,94.552a4.867,4.867,0,0,1-1.427-3.6V89.657a4.892,4.892,0,0,1,1.424-3.6,5.421,5.421,0,0,1,4.023-1.433,5.358,5.358,0,0,1,4.013,1.425,4.918,4.918,0,0,1,1.381,3.6ZM45.7,95.97H42.086V89.806H45.7Zm0-9.352H42.086V80.454H45.7Zm0-9.565H42.086V70.889H45.7Z" transform="translate(0 -66)" fill="#fff"/>
    </g>
  </g>
</svg>
