<svg xmlns="http://www.w3.org/2000/svg" width="450.446" height="289.484" viewBox="0 0 450.446 289.484">
  <g id="圖層_2" data-name="圖層 2" transform="translate(0)">
    <g id="_Layer_" data-name="&lt;Layer&gt;">
      <path id="Path_487" data-name="Path 487" d="M148.5,482.9s-28.077-40.645-94.708-30.286S-3.77,493.282,9.022,495.886s131.3,6.049,137.792,0S148.5,482.9,148.5,482.9Z" transform="translate(300.234 -209.766)" fill="#fff"/>
      <path id="Path_488" data-name="Path 488" d="M211.415,245.717v96.051s39.806,29.414,154.024,36.34,221.644-25.093,170.068-55.379S458.88,305.423,421.23,270.81,211.415,245.717,211.415,245.717Z" transform="translate(-211.415 -113.75)" fill="#cfd8ac"/>
      <path id="Path_489" data-name="Path 489" d="M148.5,482.9s-28.077-40.645-94.708-30.286S-3.77,493.282,9.022,495.886s131.3,6.049,137.792,0S148.5,482.9,148.5,482.9Z" transform="translate(300.234 -209.766)" fill="#6da49a" opacity="0.5"/>
      <path id="Path_490" data-name="Path 490" d="M653.955,454.48c.535-.027,1.07-.075,1.6-.123,1.07-.1,2.139-.225,3.209-.374a54.059,54.059,0,0,1,6.311-.5c.535,0,1.07-.027,1.647,0h.877c10.541.278,38.228,2.674,37.319-13.37-1.166-20.52-21.686-11.825-23-20.2-1.572-9.894-20.825-20.857-28.933-5.027-7.851,15.322-12.236,3.321-21.831,8.407C617.289,430.66,620.6,456.769,653.955,454.48Z" transform="translate(-587.928 -189.293)" fill="#6da49a"/>
      <path id="Path_491" data-name="Path 491" d="M638.1,468s21.135,2.5,20.67,4.562S638.3,469.1,638.3,469.1Z" transform="translate(-549.585 -217.712)" fill="#7cbdb1"/>
      <path id="Path_492" data-name="Path 492" d="M649.784,465.371s22.734-15.916,23.622-15.221-22.462,16.365-22.462,16.365Z" transform="translate(-570.494 -209.399)" fill="#7cbdb1"/>
      <path id="Path_493" data-name="Path 493" d="M679.994,465.776c.535,0,1.07-.027,1.647,0,.348-1.278,1.07-3.968,1.973-7.279.209-.77.428-1.572.652-2.407,2.61-9.776,5.963-22.836,5.263-22.761-.487.059-2.38,6.3-4.359,13.37-.139.481-.278.968-.412,1.449-.893,3.209-1.792,6.487-2.572,9.391v.07C681.176,461.305,680.363,464.381,679.994,465.776Z" transform="translate(-602.843 -201.584)" fill="#7cbdb1"/>
      <path id="Path_494" data-name="Path 494" d="M691.524,443.811c.332.535.663,1.016.984,1.5,1.53,2.332,2.808,4.182,2.808,4.182l.845-.717s-1.439-2.455-3.161-5.225c-.326-.535-.663-1.07-1.005-1.6-2.139-3.353-4.332-6.567-4.637-6.006S689.336,440.372,691.524,443.811Z" transform="translate(-613.303 -202.77)" fill="#7cbdb1"/>
      <path id="Path_495" data-name="Path 495" d="M739.758,473.747s-17.354-9.4-18.387-7.915,17.493,8.477,17.493,8.477Z" transform="translate(-675.084 -216.629)" fill="#7cbdb1"/>
      <path id="Path_496" data-name="Path 496" d="M718.9,468.573q.187.636.369,1.251c1.07,3.6,2.064,6.723,2.326,7.53.535-.027,1.07-.075,1.6-.123-.4-1.348-2.385-8.118-4.214-13.637-.171-.535-.348-1.043-.535-1.546-1.15-3.375-2.139-5.958-2.54-5.968C715.321,456.037,717.15,462.674,718.9,468.573Z" transform="translate(-655.572 -212.167)" fill="#7cbdb1"/>
      <path id="Path_497" data-name="Path 497" d="M745.278,462.493s-.31-8.338-1.139-8.557-.23,7.974-.23,7.974Z" transform="translate(-692.568 -211.168)" fill="#7cbdb1"/>
      <path id="Path_498" data-name="Path 498" d="M712.206,462.683s7.327-9.2,6.92-10.006-7.407,8.45-7.407,8.45Z" transform="translate(-649.329 -210.561)" fill="#7cbdb1"/>
      <path id="Path_499" data-name="Path 499" d="M46.944,465.627c.358,0,.722-.054,1.07-.086.711-.07,1.444-.15,2.193-.257a38.33,38.33,0,0,1,4.278-.342H56.2c7.166.193,26,1.808,25.376-9.092-.792-13.953-14.745-8.022-15.648-13.739-1.07-6.723-14.162-14.172-19.675-3.417-5.348,10.423-8.322,2.257-14.846,5.717C22.033,449.428,24.284,467.178,46.944,465.627Z" transform="translate(354.833 -201.557)" fill="#6da49a"/>
      <path id="Path_500" data-name="Path 500" d="M36.07,474.83s14.37,1.7,14.055,3.1-13.9-2.353-13.9-2.353Z" transform="translate(381.024 -220.89)" fill="#7cbdb1"/>
      <path id="Path_501" data-name="Path 501" d="M44.041,473.031S59.5,462.206,60.085,462.677s-15.258,11.135-15.258,11.135Z" transform="translate(366.791 -215.229)" fill="#7cbdb1"/>
      <path id="Path_502" data-name="Path 502" d="M64.558,473.3h1.118c.235-.872.743-2.674,1.348-4.947.139-.535.289-1.07.439-1.642,1.776-6.642,4.059-15.509,3.578-15.472-.326.037-1.6,4.278-2.963,9.092-.1.326-.193.652-.278.984-.61,2.166-1.209,4.4-1.743,6.375v.048C65.355,470.268,64.8,472.359,64.558,473.3Z" transform="translate(344.813 -209.915)" fill="#7cbdb1"/>
      <path id="Path_503" data-name="Path 503" d="M72.476,458.379c.225.353.449.7.669,1.021,1.038,1.6,1.909,2.845,1.909,2.845l.535-.5s-.979-1.669-2.139-3.551c-.225-.364-.449-.727-.685-1.07-1.444-2.278-2.941-4.466-3.155-4.081S70.968,456.042,72.476,458.379Z" transform="translate(337.639 -210.733)" fill="#7cbdb1"/>
      <path id="Path_504" data-name="Path 504" d="M105.2,478.728s-11.8-6.418-12.5-5.385,11.9,5.765,11.9,5.765Z" transform="translate(295.682 -220.145)" fill="#7cbdb1"/>
      <path id="Path_505" data-name="Path 505" d="M91.009,475.2c.086.289.171.572.251.85.738,2.449,1.4,4.573,1.6,5.123.358,0,.722-.053,1.07-.086-.267-.92-1.6-5.525-2.867-9.274l-.348-1.07c-.781-2.294-1.465-4.048-1.727-4.054C88.575,466.69,89.816,471.188,91.009,475.2Z" transform="translate(308.961 -217.103)" fill="#7cbdb1"/>
      <path id="Path_506" data-name="Path 506" d="M108.955,471.076s-.214-5.669-.775-5.819-.16,5.423-.16,5.423Z" transform="translate(283.795 -216.435)" fill="#7cbdb1"/>
      <path id="Path_507" data-name="Path 507" d="M86.511,471.2s4.984-6.257,4.706-6.8-5.038,5.744-5.038,5.744Z" transform="translate(313.127 -216.022)" fill="#7cbdb1"/>
      <path id="Path_508" data-name="Path 508" d="M524.019,124.877s50.186,3.647,52.946-19.162S554.15,80.162,553.24,59.187,556.866,6.258,532.228.781s-17.333,19.162-31.933,33.762S486.609,61,486.609,80.162,437.332,128.525,524.019,124.877Z" transform="translate(-379.509 -0.001)" fill="#6da49a"/>
      <path id="Path_509" data-name="Path 509" d="M531.453,176.627c13.557-6.776,19.082-22.066,19.306-22.708l-1.717-.61c-.054.155-5.519,15.247-18.4,21.681Z" transform="translate(-384.103 -71.32)" fill="#7cbdb1"/>
      <path id="Path_510" data-name="Path 510" d="M567.76,185.767s1.674-1.973.759-12.621,0-86.077-2.738-86.376c-1.449-.166-1.134,30.227-1.07,56.876C564.781,167.22,562.134,185.922,567.76,185.767Z" transform="translate(-420.057 -40.365)" fill="#7cbdb1"/>
      <path id="Path_511" data-name="Path 511" d="M584.42,139.36l.471-1.77c-11.857-3.177-16.044-15.4-16.1-15.509l-1.733.572C567.242,123.182,571.622,135.942,584.42,139.36Z" transform="translate(-437.712 -56.792)" fill="#7cbdb1"/>
      <path id="Path_512" data-name="Path 512" d="M646.338,210.4s50.186,3.647,52.919-19.162-22.809-25.553-23.724-46.528S679.185,91.8,654.52,86.321s-17.333,19.162-31.933,33.762S608.9,146.54,608.9,165.7,559.651,214.065,646.338,210.4Z" transform="translate(-567.208 -39.794)" fill="#c7cc86"/>
      <path id="Path_513" data-name="Path 513" d="M690.01,271.307s1.674-1.973.759-12.621,0-86.077-2.738-86.376c-1.449-.166-1.134,30.227-1.07,56.876C687.031,252.76,684.384,271.462,690.01,271.307Z" transform="translate(-607.687 -80.158)" fill="#7cbdb1"/>
      <path id="Path_514" data-name="Path 514" d="M653.713,262.167c13.557-6.776,19.082-22.066,19.306-22.708l-1.717-.61c-.054.155-5.519,15.247-18.4,21.681Z" transform="translate(-571.749 -111.113)" fill="#7cbdb1"/>
      <path id="Path_515" data-name="Path 515" d="M706.67,224.9l.471-1.77c-11.857-3.177-16.044-15.4-16.1-15.509l-1.733.572C689.492,208.722,693.872,221.461,706.67,224.9Z" transform="translate(-625.342 -96.585)" fill="#7cbdb1"/>
      <path id="Path_516" data-name="Path 516" d="M577.569,501.754c.4,0,.8-.059,1.209-.091.786-.075,1.6-.171,2.417-.283a42.457,42.457,0,0,1,4.722-.38h1.893c7.9.209,28.676,1.995,27.992-10.012-.877-15.392-16.269-8.867-17.264-15.151-1.182-7.418-15.622-15.638-21.7-3.77-5.883,11.493-9.177,2.492-16.376,6.305C550.064,483.886,552.545,503.476,577.569,501.754Z" transform="translate(-462.024 -216.821)" fill="#c7cc86"/>
      <path id="Path_517" data-name="Path 517" d="M565.67,511.9s15.852,1.872,15.509,3.417-15.354-2.594-15.354-2.594Z" transform="translate(-433.263 -238.134)" fill="#7cbdb1"/>
      <path id="Path_518" data-name="Path 518" d="M574.425,509.909s17.055-11.942,17.723-11.423-16.852,12.3-16.852,12.3Z" transform="translate(-448.928 -231.886)" fill="#7cbdb1"/>
      <path id="Path_519" data-name="Path 519" d="M597.1,510.2h1.235c.257-.957.813-2.974,1.481-5.46.155-.578.316-1.182.487-1.808,1.957-7.327,4.476-17.114,3.947-17.066-.364.037-1.781,4.722-3.273,10.022-.1.358-.209.722-.3,1.07-.674,2.4-1.342,4.867-1.931,7.043v.053C597.952,506.861,597.369,509.161,597.1,510.2Z" transform="translate(-473.203 -226.025)" fill="#7cbdb1"/>
      <path id="Path_520" data-name="Path 520" d="M605.782,493.732c.246.385.5.765.738,1.128,1.145,1.749,2.107,3.134,2.107,3.134l.61-.535s-1.07-1.845-2.369-3.92q-.369-.6-.754-1.2c-1.6-2.519-3.246-4.931-3.482-4.508S604.118,491.149,605.782,493.732Z" transform="translate(-481.071 -226.914)" fill="#7cbdb1"/>
      <path id="Path_521" data-name="Path 521" d="M641.934,516.188s-13.017-7.054-13.793-5.942,13.129,6.364,13.129,6.364Z" transform="translate(-527.406 -237.31)" fill="#7cbdb1"/>
      <path id="Path_522" data-name="Path 522" d="M626.269,512.31c.091.315.182.631.278.936.808,2.706,1.546,5.043,1.743,5.653.4,0,.8-.059,1.209-.091-.294-1.016-1.792-6.091-3.161-10.231-.128-.4-.262-.786-.385-1.161-.861-2.53-1.6-4.471-1.9-4.476C623.595,502.924,624.959,507.887,626.269,512.31Z" transform="translate(-512.751 -233.966)" fill="#7cbdb1"/>
      <path id="Path_523" data-name="Path 523" d="M646.074,507.755s-.235-6.257-.856-6.418-.171,5.984-.171,5.984Z" transform="translate(-540.52 -233.219)" fill="#7cbdb1"/>
      <path id="Path_524" data-name="Path 524" d="M621.27,507.907s5.5-6.9,5.188-7.487-5.551,6.337-5.551,6.337Z" transform="translate(-508.089 -232.778)" fill="#7cbdb1"/>
      <path id="Path_525" data-name="Path 525" d="M207.579,510.077s7.776-8.022,5.1-12.573-7.2,9.8-7.2,9.8,2.342-16.985-2.508-17.279,0,17.279,0,17.279-1.8-4.1-3.556-4.353-1.251,3.476,1.883,7.124Z" transform="translate(131.092 -227.957)" fill="#cfd8ac"/>
      <path id="Path_526" data-name="Path 526" d="M205.515,507.762c.321-.337,7.883-8.2,5.139-12.878a1.636,1.636,0,0,0-1.551-1.011c-2.011.23-4.209,5.5-5.348,8.653.374-3.942.8-11.718-1.337-14.333a2.3,2.3,0,0,0-1.674-.909,1.754,1.754,0,0,0-1.546.674c-1.931,2.385-.193,10.883.759,14.857-.711-1.16-1.717-2.455-2.749-2.6a1,1,0,0,0-1.07.535c-.631,1.15.225,4.091,2.749,7.027l.38-.332c-2.481-2.888-3.155-5.6-2.674-6.455a.5.5,0,0,1,.583-.251c1.326.187,2.877,3.1,3.359,4.2l.476-.166c-.037-.134-3.744-13.589-1.38-16.472a1.262,1.262,0,0,1,1.118-.487,1.786,1.786,0,0,1,1.316.727c2.711,3.31.979,16.135.963,16.263l.492.112c.893-2.851,3.658-10.284,5.68-10.514.38-.043.727.209,1.07.765,2.551,4.348-4.99,12.188-5.065,12.268Z" transform="translate(134.401 -226.68)" fill="#444092"/>
      <path id="Path_527" data-name="Path 527" d="M166.139,501.147s7.781-8.022,5.1-12.573-7.193,9.8-7.193,9.8,2.342-16.98-2.508-17.28,0,17.28,0,17.28-1.8-4.1-3.556-4.353-1.257,3.476,1.882,7.124Z" transform="translate(194.688 -223.803)" fill="#cfd8ac"/>
      <path id="Path_528" data-name="Path 528" d="M164.13,498.831c.326-.332,7.883-8.2,5.139-12.878a1.634,1.634,0,0,0-1.546-1.011c-2.011.23-4.209,5.5-5.348,8.653.38-3.942.808-11.718-1.332-14.333a2.31,2.31,0,0,0-1.674-.909,1.743,1.743,0,0,0-1.546.674c-1.936,2.385-.2,10.883.759,14.862-.711-1.166-1.722-2.46-2.749-2.61a1,1,0,0,0-1.1.535c-.631,1.15.23,4.091,2.749,7.027l.369-.358c-2.482-2.883-3.155-5.6-2.674-6.455a.5.5,0,0,1,.578-.251c1.332.193,2.877,3.1,3.364,4.2l.471-.171c-.037-.134-3.712-13.589-1.38-16.472a1.273,1.273,0,0,1,1.123-.487,1.8,1.8,0,0,1,1.316.727c2.711,3.31.979,16.135.957,16.263l.492.112c.9-2.845,3.663-10.284,5.68-10.514.385-.043.733.209,1.07.765,2.551,4.348-4.99,12.188-5.065,12.268Z" transform="translate(197.927 -222.525)" fill="#444092"/>
      <path id="Path_529" data-name="Path 529" d="M366.029,401.907s7.776-8.022,5.1-12.573-7.193,9.8-7.193,9.8,2.342-16.985-2.514-17.28,0,17.28,0,17.28-1.8-4.1-3.556-4.353-1.251,3.476,1.883,7.124Z" transform="translate(-112.098 -177.637)" fill="#cfd8ac"/>
      <path id="Path_530" data-name="Path 530" d="M364,399.591c.321-.337,7.883-8.2,5.139-12.878a1.636,1.636,0,0,0-1.551-1.011c-2.006.23-4.209,5.5-5.348,8.653.374-3.941.8-11.718-1.337-14.333a2.3,2.3,0,0,0-1.674-.909,1.754,1.754,0,0,0-1.546.674c-1.931,2.385-.193,10.883.765,14.857-.711-1.161-1.722-2.455-2.754-2.6a1,1,0,0,0-1.07.535c-.631,1.15.225,4.091,2.749,7.027l.38-.332c-2.482-2.883-3.155-5.6-2.674-6.455a.5.5,0,0,1,.578-.251c1.326.187,2.877,3.1,3.359,4.2l.476-.166c-.037-.134-3.717-13.589-1.38-16.472a1.267,1.267,0,0,1,1.123-.487,1.786,1.786,0,0,1,1.31.727c2.711,3.31.979,16.135.963,16.263l.433.069c.893-2.85,3.658-10.284,5.68-10.514.385-.043.727.209,1.07.765,2.551,4.348-4.99,12.188-5.065,12.268Z" transform="translate(-108.835 -176.359)" fill="#444092"/>
      <path id="Path_531" data-name="Path 531" d="M786.856,360.1s7.781-8.022,5.1-12.568-7.193,9.8-7.193,9.8,2.343-16.98-2.513-17.274,0,17.274,0,17.274-1.8-4.1-3.557-4.348-1.252,3.471,1.883,7.118Z" transform="translate(-757.987 -158.192)" fill="#cfd8ac"/>
      <path id="Path_532" data-name="Path 532" d="M784.846,357.782c.321-.332,7.883-8.2,5.139-12.873a1.636,1.636,0,0,0-1.551-1.011c-2.005.225-4.209,5.5-5.348,8.648.374-3.936.8-11.718-1.337-14.333a2.31,2.31,0,0,0-1.674-.909,1.765,1.765,0,0,0-1.54.674c-1.936,2.385-.2,10.883.759,14.862-.711-1.166-1.722-2.455-2.754-2.6a1,1,0,0,0-1.07.508c-.631,1.15.225,4.091,2.749,7.027l.38-.326c-2.482-2.888-3.155-5.6-2.674-6.455a.535.535,0,0,1,.578-.257c1.326.193,2.877,3.1,3.359,4.2l.476-.171c-.037-.134-3.717-13.589-1.38-16.467a1.241,1.241,0,0,1,1.123-.487,1.776,1.776,0,0,1,1.31.722c2.711,3.31.979,16.135.963,16.269l.492.107c.893-2.845,3.663-10.284,5.68-10.514.385-.043.727.209,1.07.765,2.551,4.348-4.99,12.194-5.065,12.268Z" transform="translate(-754.757 -156.91)" fill="#444092"/>
      <path id="Path_533" data-name="Path 533" d="M497.715,450.287s7.781-8.022,5.107-12.568-7.2,9.8-7.2,9.8,2.342-16.98-2.508-17.28,0,17.28,0,17.28-1.8-4.1-3.556-4.353-1.257,3.476,1.883,7.124Z" transform="translate(-314.218 -200.143)" fill="#cfd8ac"/>
      <path id="Path_534" data-name="Path 534" d="M495.684,447.971c.326-.332,7.883-8.2,5.139-12.873a1.635,1.635,0,0,0-1.546-1.016c-2.011.23-4.209,5.5-5.348,8.653.38-3.941.808-11.718-1.332-14.333a2.326,2.326,0,0,0-1.674-.909,1.754,1.754,0,0,0-1.546.674c-1.931,2.385-.2,10.883.759,14.862-.711-1.166-1.717-2.46-2.749-2.6a1,1,0,0,0-1.07.508c-.631,1.15.225,4.091,2.744,7.027l.385-.332c-2.481-2.883-3.155-5.6-2.674-6.455a.535.535,0,0,1,.578-.251c1.332.193,2.877,3.1,3.364,4.2l.471-.171c-.037-.134-3.712-13.589-1.38-16.472A1.278,1.278,0,0,1,490.93,428a1.813,1.813,0,0,1,1.316.727c2.711,3.31.979,16.135.963,16.263l.487.112c.84-2.845,3.621-10.284,5.653-10.514.38-.043.727.209,1.07.765,2.551,4.348-4.99,12.188-5.065,12.268Z" transform="translate(-310.957 -198.866)" fill="#444092"/>
    </g>
  </g>
</svg>
