<svg xmlns="http://www.w3.org/2000/svg" width="52.583" height="59.919" viewBox="0 0 52.583 59.919">
  <g id="圖層_2" data-name="圖層 2" transform="translate(0 0)">
    <g id="圖層_1" data-name="圖層 1" transform="translate(0 0)">
      <path id="路径_340" data-name="路径 340" d="M71.529,199.324a.405.405,0,0,0,.57-.084h0a.405.405,0,0,0-.084-.57L68.692,196.2a.432.432,0,0,0-.608.092h0a.378.378,0,0,0,.078.54Z" transform="translate(-50.993 -147.543)" fill="#331832"/>
      <path id="路径_341" data-name="路径 341" d="M75.013,182.921s-1.508,2.8-1.1,3.7,2.1,2.953.789,2.913c-.754-.024-2.483-2.08-3.031-2.594s-1.291-.759-1.351-1.51c-.073-.811,3.466-3.834,3.466-3.834a5.278,5.278,0,0,0,.705.759C75.115,182.918,75.013,182.921,75.013,182.921Z" transform="translate(-52.746 -136.952)" fill="#366f8f"/>
      <path id="路径_342" data-name="路径 342" d="M94.065,127.259c-.308,2.237,1.5,1.891-2.121,6.152-3.242,3.828-6.863,7.344-9.132,8.508-1.127.581-2.588-1.3-2.834-2.137-.7-2.348,2.391-5.479,4.8-9.613a17.616,17.616,0,0,1,3.985-5.009Z" transform="translate(-60.284 -94.49)" fill="#cc6651"/>
      <path id="路径_343" data-name="路径 343" d="M109.682,65.687c-9.7-.865-11.313-1.564-12.131-5.29a18.752,18.752,0,0,1-.049-8.435s.405-.5,2.9-.046c2.221.405,2.348.932,2.348.932a16.881,16.881,0,0,0,.638,5.187c1.081,4.593,4.615,4.031,9.519,4.031C112.9,62.066,111.127,65.816,109.682,65.687Z" transform="translate(-73.341 -38.975)" fill="#ffb17d"/>
      <path id="路径_344" data-name="路径 344" d="M54.955,169a.54.54,0,0,1-.092,0L39.4,166.446a.549.549,0,0,1-.359-.856l8.232-11.658a.549.549,0,1,1,.9.632l-7.725,10.942,14.59,2.407a.542.542,0,0,1-.089,1.081Z" transform="translate(-29.441 -116.589)" fill="#764678"/>
      <path id="路径_345" data-name="路径 345" d="M10.144,180.814a10.656,10.656,0,0,1-8.06-3.285,8.531,8.531,0,0,1-2-6.89h0c.827-6.755,4.323-10.245,10.98-10.975a8.96,8.96,0,0,1,7.163,2.194,13.115,13.115,0,0,1,3.934,9.708,8.148,8.148,0,0,1-3.783,6.963A14.738,14.738,0,0,1,10.144,180.814Zm-9.6-10.121L1,170.75a7.645,7.645,0,0,0,1.783,6.174,9.751,9.751,0,0,0,7.373,2.972c5.339,0,11.077-2.607,11.077-8.332a12.346,12.346,0,0,0-3.615-9.024,7.956,7.956,0,0,0-6.452-1.967C4.905,161.259,1.768,164.4.99,170.747Z" transform="translate(-0.002 -120.895)" fill="#331832"/>
      <path id="路径_346" data-name="路径 346" d="M30.214,191.465a2.932,2.932,0,0,1,2.9-2.9c1.916-.211,2.9,1.537,2.9,3.142s-1.556,2.413-3.177,2.413A2.38,2.38,0,0,1,30.214,191.465Z" transform="translate(-22.036 -142.021)" fill="#331832"/>
      <rect id="矩形_38" data-name="矩形 38" width="0.092" height="9.988" transform="translate(3.05 44.019) rotate(-53.931)" fill="#331832"/>
      <path id="路径_347" data-name="路径 347" d="M13.92,174.159l-.078-.019L3.81,172l.019-.089,9.956,2.124-2.891-9.078.086-.027Z" transform="translate(-2.781 -123.94)" fill="#331832"/>
      <path id="路径_348" data-name="路径 348" d="M40.35,175.24l5.431-8.5.076.049-5.215,8.162,8.084-5,.049.078Z" transform="translate(-30.328 -125.253)" fill="#331832"/>
      <path id="路径_349" data-name="路径 349" d="M40.77,171.522l1.721-10.2.089.016-1.7,10.067,10.064-2.326.019.092Z" transform="translate(-30.678 -121.29)" fill="#331832"/>
      <path id="路径_350" data-name="路径 350" d="M49.168,204.89,40.33,198.6l10.791,1.383-.011.089-10.429-1.335,8.54,6.076Z" transform="translate(-30.359 -149.359)" fill="#331832"/>
      <path id="路径_351" data-name="路径 351" d="M37.462,208.539l-.092-.008.943-10.321,4.177,9.146-.084.038-4.031-8.832Z" transform="translate(-28.036 -149.074)" fill="#331832"/>
      <path id="路径_352" data-name="路径 352" d="M10.839,207.3l-.081-.046,4.92-8.638-9.127,6.074L6.5,204.61l9.451-6.29Z" transform="translate(-4.744 -149.154)" fill="#331832"/>
      <rect id="矩形_39" data-name="矩形 39" width="10.702" height="0.092" transform="translate(0.46 50.674) rotate(-7.57)" fill="#331832"/>
      <path id="路径_353" data-name="路径 353" d="M35.713,195.246a1.435,1.435,0,0,1,1.418-1.418c.935-.1,1.418.751,1.418,1.535s-.765,1.181-1.548,1.181A1.168,1.168,0,0,1,35.713,195.246Z" transform="translate(-26.755 -145.869)" fill="#ee8062"/>
      <path id="路径_354" data-name="路径 354" d="M137.161,180.814a10.652,10.652,0,0,1-8.06-3.285,8.522,8.522,0,0,1-2-6.89c.827-6.755,4.323-10.245,10.98-10.975a8.96,8.96,0,0,1,7.163,2.194,13.106,13.106,0,0,1,3.92,9.708,8.149,8.149,0,0,1-3.783,6.963A14.673,14.673,0,0,1,137.161,180.814Zm2.1-20.3a10,10,0,0,0-1.081.062c-6.257.686-9.394,3.823-10.172,10.175h0a7.645,7.645,0,0,0,1.783,6.174,9.746,9.746,0,0,0,7.373,2.972c5.339,0,11.077-2.607,11.077-8.332a12.346,12.346,0,0,0-3.615-9.024A7.8,7.8,0,0,0,139.266,160.518Z" transform="translate(-96.577 -120.895)" fill="#331832"/>
      <path id="路径_355" data-name="路径 355" d="M157.235,191.465a2.932,2.932,0,0,1,2.9-2.9c1.916-.211,2.9,1.537,2.9,3.142s-1.564,2.413-3.169,2.413A2.394,2.394,0,0,1,157.235,191.465Z" transform="translate(-118.615 -142.021)" fill="#331832"/>
      <rect id="矩形_40" data-name="矩形 40" width="0.092" height="9.967" transform="translate(34.292 43.979) rotate(-53.93)" fill="#331832"/>
      <path id="路径_356" data-name="路径 356" d="M140.94,174.159l-.078-.019L130.83,172l.019-.089,9.954,2.124-2.888-9.078.086-.027Z" transform="translate(-98.439 -123.94)" fill="#331832"/>
      <path id="路径_357" data-name="路径 357" d="M167.37,175.24l5.431-8.5.076.049-5.215,8.162,8.084-5,.049.078Z" transform="translate(-126.027 -125.253)" fill="#331832"/>
      <path id="路径_358" data-name="路径 358" d="M167.78,171.522l1.724-10.2.089.016-1.7,10.067,10.067-2.326.019.092Z" transform="translate(-126.326 -121.29)" fill="#331832"/>
      <path id="路径_359" data-name="路径 359" d="M176.18,204.89l-8.84-6.29,10.794,1.383-.011.089-10.432-1.335,8.543,6.076Z" transform="translate(-126.005 -149.359)" fill="#331832"/>
      <path id="路径_360" data-name="路径 360" d="M164.482,208.539l-.092-.008.943-10.321,4.177,9.146-.084.038-4.034-8.832Z" transform="translate(-123.852 -149.074)" fill="#331832"/>
      <path id="路径_361" data-name="路径 361" d="M137.859,207.3l-.081-.046,4.92-8.638-9.127,6.074-.051-.076,9.451-6.29Z" transform="translate(-100.421 -149.154)" fill="#331832"/>
      <rect id="矩形_41" data-name="矩形 41" width="10.702" height="0.092" transform="translate(31.836 50.673) rotate(-7.57)" fill="#331832"/>
      <path id="路径_362" data-name="路径 362" d="M162.733,195.246a1.435,1.435,0,0,1,1.418-1.418c.935-.1,1.418.751,1.418,1.535s-.765,1.181-1.548,1.181A1.168,1.168,0,0,1,162.733,195.246Z" transform="translate(-121.938 -145.869)" fill="#ee8062"/>
      <path id="路径_363" data-name="路径 363" d="M148.665,133.824a.919.919,0,0,1-.884-.678l-6.233-23.025a.916.916,0,1,1,1.767-.478l6.236,23.025a.919.919,0,0,1-.886,1.156Z" transform="translate(-106.338 -82.796)" fill="#764678"/>
      <path id="路径_364" data-name="路径 364" d="M66.493,149.707a.921.921,0,0,1-.811-.481L55.121,129.749a.921.921,0,1,1,1.621-.875l10.567,19.48a.919.919,0,0,1-.367,1.243A.948.948,0,0,1,66.493,149.707Z" transform="translate(-41.456 -98.118)" fill="#764678"/>
      <path id="路径_365" data-name="路径 365" d="M85.179,195.038c-.032-2.823,1.764-3.158,3.512-3.158a3.158,3.158,0,0,1,0,6.314A3.373,3.373,0,0,1,85.179,195.038Z" transform="translate(-63.954 -144.454)" fill="#331832"/>
      <path id="路径_366" data-name="路径 366" d="M98.875,211.749l.276-.086-.665-3.612-.276.089.665,3.61Z" transform="translate(-73.529 -156.255)" fill="#331832"/>
      <path id="路径_367" data-name="路径 367" d="M97.75,219.505a.408.408,0,0,0,.5-.292h0a.413.413,0,0,0-.289-.5l-4-1.059a.435.435,0,0,0-.54.308h0a.384.384,0,0,0,.27.467Z" transform="translate(-70.064 -163.253)" fill="#331832"/>
      <path id="路径_368" data-name="路径 368" d="M80.539,147.063a.916.916,0,0,1-.608-1.6l11.394-10.108-13.155,6.32a.917.917,0,1,1-.794-1.654l19.064-9.159a.916.916,0,0,1,1,1.51l-16.295,14.46A.919.919,0,0,1,80.539,147.063Z" transform="translate(-58.353 -98.69)" fill="#764678"/>
      <path id="路径_369" data-name="路径 369" d="M55.559,133.621a12.91,12.91,0,0,0-4.65-.892c-2.6,0-5.274-.832-5.133.443.219,1.994,3.545.965,4.728,2.161C51.911,136.785,57.01,135.483,55.559,133.621Z" transform="translate(-34.437 -99.271)" fill="#331832"/>
      <path id="路径_370" data-name="路径 370" d="M100.734,205.631s-.411,1.4.405,2.091,3.426,1.916,2.124,2.483c-.748.327-3.393-.884-4.172-1.132s-1.621-.141-2.026-.846c-.451-.775,1.081-3.418,1.081-3.418a3.243,3.243,0,0,0,1.167.738,2.591,2.591,0,0,0,1.421.084Z" transform="translate(-72.819 -153.891)" fill="#366f8f"/>
      <path id="路径_371" data-name="路径 371" d="M60.464,132.409c4.393-9.113,8.765-17.619,5.536-21.6a16.515,16.515,0,0,0-8.751-5.385,31.728,31.728,0,0,0-9.173-.951,45.155,45.155,0,0,1-8.138-.3c-3.539,11.488,12.7,7.714,17.394,12.074,2.043,1.891-2.51,5.885-2.2,15.271C55.182,133.123,59.727,133.936,60.464,132.409Z" transform="translate(-30.218 -80.442)" fill="#ee8062"/>
      <path id="路径_372" data-name="路径 372" d="M59.769,37.956a8.346,8.346,0,0,0-5.187-5.479h0a10.063,10.063,0,0,0-2.348-1.008c-18-3.845-18.048,24.092-15.689,24.627,11.723,2.664,23.049-3.688,21.812-6.565-1.451-5.6-1.57-7.149-.743-8.916.27-.575.851-.657,1.594-1.486A2.524,2.524,0,0,0,59.769,37.956Z" transform="translate(-27.038 -22.701)" fill="#68a0be"/>
      <ellipse id="椭圆_11" data-name="椭圆 11" cx="0.924" cy="3.607" rx="0.924" ry="3.607" transform="matrix(0.137, -0.991, 0.991, 0.137, 14.032, 13.889)" fill="#331832"/>
      <path id="路径_373" data-name="路径 373" d="M71.152,67.824c-9.727-.867-11.588-3.7-12.407-7.427a18.524,18.524,0,0,1-.049-8.435s.405-.5,2.9-.046c2.221.405,2.348.932,2.348.932a16.881,16.881,0,0,0,.638,5.187c1.081,4.593,6.684,5.341,11.945,6.23C76.526,64.265,72.587,67.951,71.152,67.824Z" transform="translate(-44.111 -39.029)" fill="#ffb17d"/>
      <path id="路径_374" data-name="路径 374" d="M83.253,47.518h0a.032.032,0,0,1-.024-.038,8.767,8.767,0,0,0,.186-2.786.032.032,0,0,1,.027-.038.03.03,0,0,1,.038.027,8.839,8.839,0,0,1-.186,2.81.032.032,0,0,1-.041.024Z" transform="translate(-62.294 -33.457)" fill="#331832"/>
      <path id="路径_375" data-name="路径 375" d="M67.516,92.031c-.24,0-.562-.27-.794-.659a1.735,1.735,0,0,1-.232-.667.367.367,0,0,1,.632-.365,1.707,1.707,0,0,1,.462.54h0c.27.492.316.983.073,1.124A.27.27,0,0,1,67.516,92.031Zm-.721-1.691a.146.146,0,0,0-.078.019c-.076.041-.108.159-.092.324a1.546,1.546,0,0,0,.213.613c.27.446.6.659.751.575s.135-.494-.122-.94h0a1.605,1.605,0,0,0-.421-.492A.462.462,0,0,0,66.794,90.34Z" transform="translate(-49.767 -67.545)" fill="#e8835c"/>
      <path id="路径_376" data-name="路径 376" d="M128.286,107.351s1.989-.951,1.783-1.681-.062-1.291-.376-1.335-4.1.889-4.1.889l-5.079,1.159.059,1.818,5.847-1.637.689.811,1.181-.016Z" transform="translate(-90.643 -78.204)" fill="#331832"/>
      <path id="路径_377" data-name="路径 377" d="M152.9,102.715l4.18-1.516-.551-1.2-4.442,1.626.813,1.089Z" transform="translate(-114.094 -74.918)" fill="#331832"/>
      <path id="路径_378" data-name="路径 378" d="M165.455,98.86a1.318,1.318,0,0,1,.811-1.667,1.4,1.4,0,1,1-.811,1.667Z" transform="translate(-123.939 -72.737)" fill="#331832"/>
      <path id="路径_379" data-name="路径 379" d="M110.739,113.114a1.5,1.5,0,0,1,1.159-1.767,1.477,1.477,0,0,1,1.891.908,1.606,1.606,0,0,1-3.064.859Z" transform="translate(-82.961 -83.371)" fill="#331832"/>
      <path id="路径_380" data-name="路径 380" d="M110.476,98.14s3.115.111,4.28,1.518,1.586,4.08.681,3.361a12.093,12.093,0,0,1-1.81-1.956s1.808,2.734.986,2.88-1.859-1.291-1.859-1.291,1.378,2.469.557,2.356-1.891-1.98-1.891-1.98,1.286,2.513.335,2.359-1.332-2.7-2.161-2.556-4.139.449-4.823-1.789Z" transform="translate(-78.886 -73.675)" fill="#ffb17d"/>
      <path id="路径_381" data-name="路径 381" d="M134.861,106.26s-.389-.811-.911-.908l.022-.132c.592.095.994.946,1.01.983Z" transform="translate(-100.291 -78.775)" fill="#e8835c"/>
      <path id="路径_382" data-name="路径 382" d="M129.19,108.148a2.286,2.286,0,0,0-1.11-1.081l.046-.127a2.367,2.367,0,0,1,1.186,1.167Z" transform="translate(-95.905 -80.068)" fill="#e8835c"/>
      <path id="路径_383" data-name="路径 383" d="M125.094,110.456s-.462-.978-1.024-1.021V109.3c.64.049,1.116,1.056,1.135,1.1Z" transform="translate(-92.898 -81.833)" fill="#e8835c"/>
      <path id="路径_384" data-name="路径 384" d="M144.242,90s2.777.1,3.815,1.351,1.416,3.637.608,3a10.783,10.783,0,0,1-1.621-1.743s1.621,2.432.878,2.569-2.116-2-2.116-2,1.689,3.053.956,2.953-2-2.432-2-2.432,1.456,2.9.608,2.767-1.186-2.407-1.921-2.278A3.081,3.081,0,0,1,140,92.161Z" transform="translate(-105.271 -67.539)" fill="#ffb17d"/>
      <path id="路径_385" data-name="路径 385" d="M163.7,97.239s-.349-.735-.811-.811l.019-.119c.54.086.889.846.9.878Z" transform="translate(-121.953 -72.101)" fill="#e8835c"/>
      <path id="路径_386" data-name="路径 386" d="M158.639,98.9a2.026,2.026,0,0,0-.989-.975l.041-.111a2.121,2.121,0,0,1,1.059,1.037Z" transform="translate(-118.039 -73.228)" fill="#e8835c"/>
      <path id="路径_387" data-name="路径 387" d="M154.991,100.982s-.411-.873-.911-.911V99.95c.57.043.994.943,1.01.981Z" transform="translate(-115.361 -74.829)" fill="#e8835c"/>
      <path id="路径_388" data-name="路径 388" d="M93.882,16.79l.659-1.472.195-.43,1.129-2.518-.211,2.618-.127,1.57-.041.5a1.737,1.737,0,0,0,.27,1.065c.086.13.762.619,0,.854a3.462,3.462,0,0,1-3.148-1.408C92.6,17.566,93.669,17.266,93.882,16.79Z" transform="translate(-69.42 -9.027)" fill="#ffb17d"/>
      <path id="路径_389" data-name="路径 389" d="M110.118,9.67a3.491,3.491,0,0,1-.176,1.429c-.27.775-.832-1.278-.832-1.278Z" transform="translate(-81.692 -7.056)" fill="#5c305d"/>
      <path id="路径_390" data-name="路径 390" d="M99.777,8.274a2.385,2.385,0,1,0-4.688.041,2.385,2.385,0,1,0,4.688-.041Z" transform="translate(-71.322 -3.991)" fill="#ffb17d"/>
      <path id="路径_391" data-name="路径 391" d="M90.734,3.51l1.143.019a.829.829,0,0,0,.654-.289c.27-.335.573-.486,1.621-.319A2.226,2.226,0,0,0,96.681,1.77a.8.8,0,0,0-1.1-1c-.711.259-.316-.54-.954-.708C93.447-.248,93.1.651,92.131.5c-1.286-.2-3.715.5-2.9,2.9Z" transform="translate(-66.917 0.003)" fill="#331832"/>
      <path id="路径_392" data-name="路径 392" d="M102.638,15.262a.047.047,0,0,0-.011-.089.516.516,0,0,0-.581.243.049.049,0,0,0,0,.065c.022.016.046,0,.065-.014a.827.827,0,0,1,.484-.2A.038.038,0,0,0,102.638,15.262Z" transform="translate(-76.381 -11.06)" fill="#080435"/>
      <path id="路径_393" data-name="路径 393" d="M103.232,17.09c.016.111.095.192.176.181s.135-.113.119-.224-.095-.195-.176-.181A.185.185,0,0,0,103.232,17.09Z" transform="translate(-77.264 -12.307)" fill="#080435"/>
      <path id="路径_394" data-name="路径 394" d="M109.522,15.3a.038.038,0,0,0,.03-.022.059.059,0,0,0,0-.065.335.335,0,0,0-.489,0,.057.057,0,0,0,0,.065.035.035,0,0,0,.051,0,.492.492,0,0,1,.405,0A.035.035,0,0,0,109.522,15.3Z" transform="translate(-81.63 -11.025)" fill="#080435"/>
      <path id="路径_395" data-name="路径 395" d="M108.967,16.967a.186.186,0,0,0,.095.235c.081.019.168-.054.195-.165a.184.184,0,0,0-.095-.235A.179.179,0,0,0,108.967,16.967Z" transform="translate(-81.55 -12.259)" fill="#080435"/>
      <path id="路径_396" data-name="路径 396" d="M89.68,12.206s.573,1.772,1.662,2.032c0,0-.738-1.389,1.237-1.94A6.226,6.226,0,0,0,89.68,12.206Z" transform="translate(-67.204 -8.798)" fill="#5c305d"/>
      <path id="路径_397" data-name="路径 397" d="M94.464,14.515a.486.486,0,0,0,.684-.027.513.513,0,0,0-.789-.648A.484.484,0,0,0,94.464,14.515Z" transform="translate(-70.577 -9.991)" fill="#ffb17d"/>
      <path id="路径_398" data-name="路径 398" d="M97.657,13s-.322,1.391-.068,1.694a5.137,5.137,0,0,0,3.058.413h0A1.851,1.851,0,0,1,98.9,16.761a2.648,2.648,0,0,1-.9-.113h0a1.824,1.824,0,0,1-1.351-1.119,5.376,5.376,0,0,1,.3-1.229,1.227,1.227,0,0,0-.165-.994A1.829,1.829,0,0,1,97.657,13Z" transform="translate(-72.458 -9.487)" fill="#5c305d"/>
      <path id="路径_399" data-name="路径 399" d="M105.385,22.238a4.782,4.782,0,0,1-1.535-.068.738.738,0,0,0,.851.7C105.174,22.843,105.385,22.238,105.385,22.238Z" transform="translate(-77.772 -16.179)" fill="#fff"/>
      <path id="路径_400" data-name="路径 400" d="M111.782,1.434a.359.359,0,0,1-.362-.354h.065a.292.292,0,0,0,.305.286Z" transform="translate(-83.397 -0.787)" fill="#331832"/>
      <path id="路径_401" data-name="路径 401" d="M109.44,5.4v-.03a4.415,4.415,0,0,0,.762-.213c.354-.138.792-.384.867-.759a.475.475,0,0,0-.054-.43c-.124-.138-.389-.111-.619-.086h-.105V3.861h.1c.24-.027.511-.057.648.095a.511.511,0,0,1,.062.459c-.065.308-.37.578-.889.781a4.26,4.26,0,0,1-.775.2Z" transform="translate(-81.965 -2.801)" fill="#fff"/>
      <path id="路径_402" data-name="路径 402" d="M98.992,1.7a3.013,3.013,0,0,1-.762-.1v-.03a2.324,2.324,0,0,0,2.126-.349l.024.024A2.161,2.161,0,0,1,98.992,1.7Z" transform="translate(-73.585 -0.889)" fill="#fff"/>
      <path id="路径_403" data-name="路径 403" d="M125.4,98.333c-.811-1.478-5.912-1.916-5.963-1.918V96.28a24.978,24.978,0,0,1,2.7.405c1.875.4,3.01.929,3.372,1.581Z" transform="translate(-89.653 -72.111)" fill="#e8835c"/>
    </g>
  </g>
</svg>
