<svg id="组_343" data-name="组 343" xmlns="http://www.w3.org/2000/svg" width="46.144" height="58.911" viewBox="0 0 46.144 58.911">
  <g id="圖層_2" data-name="圖層 2" transform="translate(0 0)">
    <g id="圖層_1" data-name="圖層 1" transform="translate(0 0)">
      <rect id="矩形_46" data-name="矩形 46" width="0.368" height="4.161" transform="matrix(0.779, -0.627, 0.627, 0.779, 22.967, 50.206)" fill="#331832"/>
      <path id="路径_404" data-name="路径 404" d="M75.626,190.826s-1.188,2.26-.857,2.97,1.7,2.353.651,2.328c-.6-.014-2-1.65-2.447-2.056s-1.04-.6-1.1-1.2c-.062-.66,2.742-3.1,2.742-3.1a4.376,4.376,0,0,0,.571.6C75.708,190.821,75.626,190.826,75.626,190.826Z" transform="translate(-55.017 -145.018)" fill="#91a4e5"/>
      <path id="路径_405" data-name="路径 405" d="M92.092,137.705c-.228,1.794,1.216,1.5-1.657,4.945-2.575,3.094-5.45,5.941-7.259,6.884-.9.473-2.084-1.026-2.285-1.693-.576-1.876,1.878-4.405,3.772-7.739a14.085,14.085,0,0,1,3.158-4.042Z" transform="translate(-61.744 -103.987)" fill="#1d5873"/>
      <path id="路径_406" data-name="路径 406" d="M117.77,80.361c-7.609-1.753-8.808-2.484-9.048-5.532a14.832,14.832,0,0,1,.889-6.7s.377-.354,2.305.281c1.718.567,1.963.119,1.963.119a16.366,16.366,0,0,0-.265,5.068c.345,3.763,3.222,3.708,7.113,4.248C120.726,77.834,118.905,80.615,117.77,80.361Z" transform="translate(-83.019 -52.005)" fill="#ffb17d"/>
      <path id="路径_407" data-name="路径 407" d="M50.03,172.7l-.071-.016-12-3.727a.439.439,0,0,1-.19-.72l7.814-8.351a.443.443,0,1,1,.649.6l-7.337,7.835,11.329,3.519a.441.441,0,0,1-.192.857Z" transform="translate(-28.754 -121.85)" fill="#764678"/>
      <path id="路径_408" data-name="路径 408" d="M7.144,178.251a8.552,8.552,0,0,1-6.039-3.5,6.829,6.829,0,0,1-.834-5.689l.354.094-.354-.094c1.4-5.274,4.552-7.659,9.923-7.508a7.2,7.2,0,0,1,5.447,2.532,10.549,10.549,0,0,1,2.056,8.137,6.532,6.532,0,0,1-3.768,5.114A11.84,11.84,0,0,1,7.144,178.251Zm3.9-15.887a7.719,7.719,0,0,0-.873-.071c-5.043-.144-7.878,2-9.194,6.96a6.167,6.167,0,0,0,.738,5.1,7.82,7.82,0,0,0,5.527,3.174c4.236.585,9.085-.855,9.713-5.4a9.889,9.889,0,0,0-1.878-7.563,6.249,6.249,0,0,0-4.033-2.2Z" transform="translate(0.002 -123.246)" fill="#331832"/>
      <path id="路径_409" data-name="路径 409" d="M29.232,190.582a2.354,2.354,0,0,1,2.623-1.988c1.542.046,2.136,1.542,1.96,2.815s-1.508,1.743-2.781,1.567A1.914,1.914,0,0,1,29.232,190.582Z" transform="translate(-22.496 -144.371)" fill="#331832"/>
      <path id="路径_410" data-name="路径 410" d="M20.141,178.308l-5.751-5.545.05-.053,5.751,5.545Z" transform="translate(-11.102 -132.189)" fill="#331832"/>
      <path id="路径_411" data-name="路径 411" d="M13.5,172.64l-.059-.023-7.73-2.8.025-.069,7.67,2.781L12.11,165l.071-.011Z" transform="translate(-4.405 -126.239)" fill="#331832"/>
      <path id="路径_412" data-name="路径 412" d="M39.09,176.751l5.246-6.151.057.046-5.038,5.909,6.967-3.085.03.066Z" transform="translate(-29.901 -130.563)" fill="#331832"/>
      <path id="路径_413" data-name="路径 413" d="M39.37,171.7l2.488-7.908.069.021-2.454,7.805,8.246-.738.007.073Z" transform="translate(-30.107 -125.315)" fill="#331832"/>
      <path id="路径_414" data-name="路径 414" d="M45.347,203.864,39.02,197.9l8.418,2.283-.021.071-8.134-2.207,6.114,5.765Z" transform="translate(-29.839 -151.29)" fill="#331832"/>
      <path id="路径_415" data-name="路径 415" d="M31.4,205.707l-.071-.016,1.885-8.091,2.308,7.721-.069.021-2.232-7.456Z" transform="translate(-23.98 -151.059)" fill="#331832"/>
      <path id="路径_416" data-name="路径 416" d="M7.421,204.345l-.059-.046,4.855-6.318L4.3,201.8l-.032-.066,8.194-3.955Z" transform="translate(-3.294 -151.197)" fill="#331832"/>
      <rect id="矩形_47" data-name="矩形 47" width="0.073" height="8.578" transform="translate(0.47 46.385) rotate(-89.73)" fill="#331832"/>
      <path id="路径_417" data-name="路径 417" d="M34.547,194.489a1.153,1.153,0,0,1,1.282-.971,1.1,1.1,0,0,1,.957,1.371c-.087.617-.736.852-1.357.765A.941.941,0,0,1,34.547,194.489Z" transform="translate(-26.429 -148.188)" fill="#ee8062"/>
      <path id="路径_418" data-name="路径 418" d="M126.394,194.761a8.552,8.552,0,0,1-6.039-3.5,6.833,6.833,0,0,1-.834-5.692h0c1.4-5.271,4.552-7.657,9.923-7.506a7.19,7.19,0,0,1,5.445,2.532,10.54,10.54,0,0,1,2.056,8.137,6.528,6.528,0,0,1-3.766,5.114A11.864,11.864,0,0,1,126.394,194.761Zm-6.169-9a6.119,6.119,0,0,0,.738,5.1,7.808,7.808,0,0,0,5.527,3.174c4.236.587,9.085-.852,9.713-5.4a9.89,9.89,0,0,0-1.878-7.563,6.387,6.387,0,0,0-4.906-2.271C124.376,178.659,121.541,180.8,120.224,185.763Z" transform="translate(-90.912 -135.984)" fill="#331832"/>
      <path id="路径_419" data-name="路径 419" d="M148.482,207.089a2.353,2.353,0,0,1,2.625-1.986c1.542.043,2.136,1.542,1.96,2.815s-1.508,1.743-2.781,1.567A1.921,1.921,0,0,1,148.482,207.089Z" transform="translate(-113.412 -156.846)" fill="#331832"/>
      <path id="路径_420" data-name="路径 420" d="M139.383,194.818l-5.753-5.545.053-.053,5.751,5.543Z" transform="translate(-102.249 -144.826)" fill="#331832"/>
      <path id="路径_421" data-name="路径 421" d="M132.749,189.142l-.059-.023-7.73-2.8.025-.069,7.67,2.781-1.3-7.526.073-.014Z" transform="translate(-95.573 -138.63)" fill="#331832"/>
      <path id="路径_422" data-name="路径 422" d="M158.34,193.253l5.246-6.153.055.048-5.036,5.909,6.967-3.085.03.066Z" transform="translate(-121.072 -142.958)" fill="#331832"/>
      <path id="路径_423" data-name="路径 423" d="M158.62,188.2l2.488-7.91.069.023-2.454,7.805,8.246-.738.007.073Z" transform="translate(-121.288 -137.704)" fill="#331832"/>
      <path id="路径_424" data-name="路径 424" d="M164.587,220.374l-6.327-5.964,8.418,2.283-.018.071-8.134-2.207,6.112,5.763Z" transform="translate(-121.01 -164.028)" fill="#331832"/>
      <path id="路径_425" data-name="路径 425" d="M150.651,222.217l-.071-.016,1.883-8.091,2.31,7.721-.071.021-2.23-7.456Z" transform="translate(-115.085 -163.796)" fill="#331832"/>
      <path id="路径_426" data-name="路径 426" d="M126.669,220.855l-.057-.046,4.855-6.318-7.915,3.82-.032-.066,8.194-3.955Z" transform="translate(-94.463 -163.935)" fill="#331832"/>
      <rect id="矩形_48" data-name="矩形 48" width="0.073" height="8.578" transform="translate(28.544 50.451) rotate(-89.74)" fill="#331832"/>
      <path id="路径_427" data-name="路径 427" d="M153.784,211a1.15,1.15,0,0,1,1.282-.971,1.1,1.1,0,0,1,.957,1.371c-.087.617-.736.852-1.36.765A.933.933,0,0,1,153.784,211Z" transform="translate(-117.724 -160.646)" fill="#ee8062"/>
      <path id="路径_428" data-name="路径 428" d="M148.253,147.828a.731.731,0,0,1-.626-.633L145.21,128.23a.734.734,0,0,1,1.455-.185l2.417,18.965a.736.736,0,0,1-.635.823A.788.788,0,0,1,148.253,147.828Z" transform="translate(-111.148 -96.902)" fill="#ee8062"/>
      <path id="路径_429" data-name="路径 429" d="M68.409,152.618a.731.731,0,0,1-.587-.457l-6.249-16.639a.736.736,0,0,1,1.371-.516l6.247,16.627a.733.733,0,0,1-.427.946.749.749,0,0,1-.354.039Z" transform="translate(-47.073 -102.755)" fill="#ee8062"/>
      <path id="路径_430" data-name="路径 430" d="M80.415,201c.283-2.244,1.748-2.312,3.133-2.12a2.529,2.529,0,1,1-.685,5.011A2.705,2.705,0,0,1,80.415,201Z" transform="translate(-61.521 -151.991)" fill="#331832"/>
      <path id="路径_431" data-name="路径 431" d="M79.483,159.7a.736.736,0,0,1-.306-1.339l10.156-6.772-11.139,3.574a.736.736,0,1,1-.457-1.4l16.141-5.175a.733.733,0,0,1,.631,1.309l-14.516,9.686A.745.745,0,0,1,79.483,159.7Z" transform="translate(-58.883 -113.592)" fill="#ee8062"/>
      <path id="路径_432" data-name="路径 432" d="M60.165,138.845a10.282,10.282,0,0,0-3.594-1.218c-2.056-.288-4.1-1.241-4.113-.215-.046,1.6,2.71,1.156,3.514,2.246C56.923,140.954,61.111,140.483,60.165,138.845Z" transform="translate(-40.12 -104.851)" fill="#331832"/>
      <path id="路径_433" data-name="路径 433" d="M113.916,211.27s.185,1.142,1.012,1.371,3.139.21,2.39,1.069c-.427.494-2.76.526-3.407.612s-1.218.457-1.759.085c-.594-.407-.384-2.852-.384-2.852a2.627,2.627,0,0,0,1.1.135A2.079,2.079,0,0,0,113.916,211.27Z" transform="translate(-85.495 -161.605)" fill="#91a4e5"/>
      <path id="路径_434" data-name="路径 434" d="M69.564,117.5a13.265,13.265,0,0,0-6.354-5.239A25.444,25.444,0,0,0,56.03,110.5a35.6,35.6,0,0,1-6.43-1.142c-4.072,8.733,9.24,7.522,12.485,11.5C63.495,122.594,71.689,121.013,69.564,117.5Z" transform="translate(-37.168 -83.604)" fill="#366f8f"/>
      <path id="路径_435" data-name="路径 435" d="M66.6,51.41s-1.732-3.9-4.136-4.8c-7.54-2.8-10.282,2.248-12.386,8.15-1.805,5.084-3.544,9.389-2.778,9.677,9.016,3.4,16.143.153,15.478-2.269-.535-4.606,1.613-5.484,1.6-7.051,0-1.9.615-2.36,1.115-2.66A5.461,5.461,0,0,0,66.6,51.41Z" transform="translate(-35.894 -34.958)" fill="#91a4e5"/>
      <path id="路径_436" data-name="路径 436" d="M79.181,62.554c-.112.393-1.446.361-2.984-.073s-2.694-1.106-2.582-1.5,1.446-.361,2.984.073S79.3,62.161,79.181,62.554Z" transform="translate(-56.324 -46.486)" fill="#331832"/>
      <path id="路径_437" data-name="路径 437" d="M81.347,77.006c-7.609-1.753-8.785-4.209-9.023-7.257a14.819,14.819,0,0,1,.882-6.7s.377-.354,2.305.281c1.723.567,1.764,1,1.764,1a13.474,13.474,0,0,0-.066,4.188c.345,3.761,4.721,4.977,8.8,6.258C86.009,74.774,82.476,77.269,81.347,77.006Z" transform="translate(-55.182 -48.104)" fill="#ffb17d"/>
      <path id="路径_438" data-name="路径 438" d="M97.941,61.262h0a.027.027,0,0,1-.016-.034,7.215,7.215,0,0,0,.457-2.194.023.023,0,1,1,.043-.009,7.221,7.221,0,0,1-.457,2.212.025.025,0,0,1-.027.025Z" transform="translate(-75.002 -45.178)" fill="#331832"/>
      <path id="路径_439" data-name="路径 439" d="M78.177,101.237a.475.475,0,0,1-.247-.137,1.327,1.327,0,0,1-.306-.475c-.171-.418-.142-.813.066-.9s.5.178.672.6h0a1.371,1.371,0,0,1,.112.555.354.354,0,0,1-.176.343A.21.21,0,0,1,78.177,101.237Zm-.386-1.417a.119.119,0,0,0-.064,0c-.126.05-.16.375,0,.759a1.263,1.263,0,0,0,.281.436c.1.089.187.128.251.1s.1-.117.11-.247a1.243,1.243,0,0,0-.1-.51h0C78.129,100.04,77.926,99.839,77.791,99.82Z" transform="translate(-59.364 -76.361)" fill="#e8835c"/>
      <path id="路径_440" data-name="路径 440" d="M131.112,126.39s1.682-.535,1.6-1.142.094-1.03-.151-1.1-3.357.254-3.357.254l-4.161.363-.153,1.451,4.821-.658.377.617,1.024.212Z" transform="translate(-95.519 -95.057)" fill="#331832"/>
      <path id="路径_441" data-name="路径 441" d="M156.5,123.747l3.484-.743-.3-1.015-3.708.8.528.953Z" transform="translate(-119.243 -93.42)" fill="#331832"/>
      <path id="路径_442" data-name="路径 442" d="M169,121.574a1,1,0,1,1,1.129.969A1.058,1.058,0,0,1,169,121.574Z" transform="translate(-129.295 -92.321)" fill="#331832"/>
      <path id="路径_443" data-name="路径 443" d="M115.678,127.109a1.286,1.286,0,1,1,1.412.93A1.2,1.2,0,0,1,115.678,127.109Z" transform="translate(-88.563 -96.347)" fill="#331832"/>
      <path id="路径_444" data-name="路径 444" d="M116.036,114.7s2.461.432,3.231,1.675.813,3.414.171,2.742a8.02,8.02,0,0,1-1.1-1.54s1.017,2.159.347,2.184-1.341-1.213-1.341-1.213.832,2.1.192,1.915-1.22-1.785-1.22-1.785.685,2.141-.059,1.912-.761-2.285-1.43-2.264-3.336-.1-3.633-1.951Z" transform="translate(-85.023 -87.785)" fill="#ffb17d"/>
      <path id="路径_445" data-name="路径 445" d="M139.611,123.325s-.228-.686-.621-.82l.03-.105c.457.142.685.864.685.893Z" transform="translate(-106.452 -93.744)" fill="#e8835c"/>
      <path id="路径_446" data-name="路径 446" d="M134.021,124.335a1.828,1.828,0,0,0-.761-.992l.05-.094a1.908,1.908,0,0,1,.816,1.056Z" transform="translate(-102.061 -94.393)" fill="#e8835c"/>
      <path id="路径_447" data-name="路径 447" d="M129.879,126.009s-.258-.827-.7-.914l.023-.105c.5.11.77.962.781,1Z" transform="translate(-98.937 -95.727)" fill="#e8835c"/>
      <path id="路径_448" data-name="路径 448" d="M149.235,110.94s2.2.384,2.881,1.492.724,3.044.153,2.447a8.569,8.569,0,0,1-1.09-1.561s1.012,2.111.416,2.134-1.46-1.828-1.46-1.828,1.005,2.612.434,2.449-1.321-2.148-1.321-2.148.839,2.465.181,2.262-.685-2.043-1.277-2.02a2.5,2.5,0,0,1-2.532-1.983Z" transform="translate(-111.258 -84.915)" fill="#ffb17d"/>
      <path id="路径_449" data-name="路径 449" d="M167.867,118.625s-.2-.621-.558-.731l.03-.094c.409.126.61.77.619.8Z" transform="translate(-127.992 -90.222)" fill="#e8835c"/>
      <path id="路径_450" data-name="路径 450" d="M162.865,119.507a1.64,1.64,0,0,0-.685-.882l.046-.085a1.684,1.684,0,0,1,.724.941Z" transform="translate(-124.034 -90.787)" fill="#e8835c"/>
      <path id="路径_451" data-name="路径 451" d="M159.194,120.989s-.229-.738-.624-.825l.021-.094c.457.1.685.857.685.891Z" transform="translate(-121.249 -91.96)" fill="#e8835c"/>
      <path id="路径_452" data-name="路径 452" d="M122.4,111.8c-.489-1.266-7.022-2.934-7.083-2.95l.025-.105c.272.069,6.654,1.7,7.163,3.016Z" transform="translate(-88.212 -83.266)" fill="#e8835c"/>
      <path id="路径_453" data-name="路径 453" d="M109.416,19.246a1.8,1.8,0,0,0,1.284-2.285c-.457-1.547-.361-2.285-1.485-2.932-1.25-.722-1.323-.267-3.105-.9a1.729,1.729,0,0,0-2.312,1.22c-.386,1.01-1.346,4.682,1.757,5.28S109.416,19.246,109.416,19.246Z" transform="translate(-79.051 -10.034)" fill="#ee8062"/>
      <path id="路径_454" data-name="路径 454" d="M105.745,41.984a.105.105,0,0,1-.043-.018.089.089,0,0,1-.011-.126c.457-.535.843-.473.859-.471a.089.089,0,0,1,.071.1.091.091,0,0,1-.1.073h0c-.018,0-.318-.037-.685.409A.094.094,0,0,1,105.745,41.984Z" transform="translate(-80.928 -31.912)" fill="#ee8062"/>
      <path id="路径_455" data-name="路径 455" d="M124.244,14.553a.082.082,0,0,1-.039-.016,2.917,2.917,0,0,0-2.116-.562.089.089,0,1,1-.041-.174,3.117,3.117,0,0,1,2.257.59.09.09,0,0,1-.062.162Z" transform="translate(-93.397 -10.623)" fill="#ee8062"/>
      <path id="路径_456" data-name="路径 456" d="M105.4,33.655c.5.046.647-.133.914-.494l.845-1.129.244-.327,1.442-1.926-.587,2.164-.352,1.3-.1.37a.914.914,0,0,0,.37,1.017s-.366.685-1.572.249A2.13,2.13,0,0,1,105.4,33.655Z" transform="translate(-80.687 -22.974)" fill="#ffb17d"/>
      <path id="路径_457" data-name="路径 457" d="M113.1,38.481v.037a1.987,1.987,0,0,0,.685,1.387l.05-.178.352-1.3a1.411,1.411,0,0,0-.855-.228A.306.306,0,0,0,113.1,38.481Z" transform="translate(-86.617 -29.459)" fill="#e49462"/>
      <circle id="椭圆_12" data-name="椭圆 12" cx="2.637" cy="2.637" r="2.637" transform="translate(24.804 8.679) rotate(-63.14)" fill="#ffb17d"/>
      <path id="路径_458" data-name="路径 458" d="M119.68,38.553A5.235,5.235,0,0,1,118.105,38a.8.8,0,0,0,.653,1C119.266,39.117,119.68,38.553,119.68,38.553Z" transform="translate(-90.421 -29.316)" fill="#e8633e"/>
      <path id="路径_459" data-name="路径 459" d="M119.774,38.514a1.074,1.074,0,0,1-.685.041,1.936,1.936,0,0,1-.889-.606A7.889,7.889,0,0,0,119.774,38.514Z" transform="translate(-90.516 -29.277)" fill="#fff"/>
      <path id="路径_460" data-name="路径 460" d="M118.832,30.707a.048.048,0,0,0,.041-.025.055.055,0,0,0-.016-.075.6.6,0,0,0-.729.027.055.055,0,0,0-.014.078.064.064,0,0,0,.078,0,.932.932,0,0,1,.605-.023A.046.046,0,0,0,118.832,30.707Z" transform="translate(-90.455 -23.526)" fill="#080435"/>
      <path id="路径_461" data-name="路径 461" d="M118.888,33.008a.215.215,0,0,0,.119.27c.094.021.192-.069.228-.2a.215.215,0,0,0-.119-.27C119.014,32.794,118.918,32.88,118.888,33.008Z" transform="translate(-91.051 -25.311)" fill="#080435"/>
      <path id="路径_462" data-name="路径 462" d="M127.265,33.016a.053.053,0,0,0,.048,0,.055.055,0,0,0,.014-.075.6.6,0,0,0-.685-.254.053.053,0,0,0-.039.066c0,.03.034.041.066.041a.914.914,0,0,1,.567.21A.087.087,0,0,0,127.265,33.016Z" transform="translate(-96.962 -25.195)" fill="#080435"/>
      <path id="路径_463" data-name="路径 463" d="M126.221,34.953a.183.183,0,1,0,.17-.135A.183.183,0,0,0,126.221,34.953Z" transform="translate(-96.62 -26.861)" fill="#080435"/>
      <path id="路径_464" data-name="路径 464" d="M116.567,19.436s2.056-.43,1.867,2.312c0,0,.228.779-.685.279s-1.142.1-1.689-.4-.425-.478-.939-.37.121-.665-.969-1.828C113.519,18.771,114.991,18.806,116.567,19.436Z" transform="translate(-87.254 -14.618)" fill="#ee8062"/>
      <path id="路径_465" data-name="路径 465" d="M106.816,21.571s-1.142.382-1.142.928-.048.859-.4,1.012.228.621-.27.957-1.485-1.6-1.435-2.056C103.921,19.476,107.805,20.646,106.816,21.571Z" transform="translate(-79.288 -15.846)" fill="#ee8062"/>
      <path id="路径_466" data-name="路径 466" d="M110.748,28.563a.6.6,0,0,0,.832.212.665.665,0,0,0,.027-.9.6.6,0,0,0-.832-.215A.667.667,0,0,0,110.748,28.563Z" transform="translate(-84.692 -21.268)" fill="#ffb17d"/>
      <path id="路径_467" data-name="路径 467" d="M67.343.353a.992.992,0,0,1,.21.256,2.517,2.517,0,0,0,2.927,1.142c2.2-.51,4.638-.893,5.555-.263s.685,1.206-.393,1.106-2.184-.315-2.774,1.021S70.974,6.531,69.361,6.3,68.9,5.238,68.152,4.859s-1.645.96-3.064-.2S65.346-1.354,67.343.353Z" transform="translate(-49.322 0.007)" fill="#ee8062"/>
      <path id="路径_468" data-name="路径 468" d="M67.488,8.355h0a1.241,1.241,0,0,1-.759-.708,2.443,2.443,0,0,1,.228-1.988,1,1,0,0,1,.715-.628c.512-.094,1.181.258,1.99,1.042,1.227,1.186,1.9.816,2.918.254a6.485,6.485,0,0,1,2.056-.816c1.545-.286,2.452-.251,2.7.1a.393.393,0,0,1,0,.409.052.052,0,1,1-.089-.055.283.283,0,0,0,0-.295c-.123-.178-.624-.423-2.591-.059a6.37,6.37,0,0,0-2.029.807c-1.035.558-1.771.964-3.053-.265-.775-.749-1.433-1.1-1.9-1.014a.914.914,0,0,0-.64.558,2.442,2.442,0,0,0-.215,1.9,1.142,1.142,0,0,0,.685.649.053.053,0,0,1,.032.066A.05.05,0,0,1,67.488,8.355Z" transform="translate(-50.902 -3.868)" fill="#fff"/>
      <path id="路径_469" data-name="路径 469" d="M82.784,17.177a.686.686,0,0,1-.135-.032c-.617-.2-.667-.521-.706-.777s-.059-.4-.5-.436a.053.053,0,0,1-.046-.057.05.05,0,0,1,.055-.048h.075c.457.062.482.283.519.516s.078.51.633.685c1.092.359,2.566-2.285,2.582-2.317a.055.055,0,0,1,.071-.021.053.053,0,0,1,.021.071C85.295,14.89,83.929,17.335,82.784,17.177Z" transform="translate(-62.307 -11.328)" fill="#fff"/>
      <path id="路径_470" data-name="路径 470" d="M119.781,10.98h0a.089.089,0,0,1-.062-.11,1.309,1.309,0,0,1,.914-.889.089.089,0,1,1,.041.174,1.142,1.142,0,0,0-.784.763.091.091,0,0,1-.11.062Z" transform="translate(-91.685 -7.698)" fill="#ee8062"/>
      <path id="路径_471" data-name="路径 471" d="M105.524,149.851s-1.371,13.175,1.049,13.138,3.2-.025,3.7-1.935c.6-2.315,3.263-8.742,3.075-13.582C113.267,145.432,105.524,149.851,105.524,149.851Z" transform="translate(-80.404 -111.97)" fill="#366f8f"/>
      <path id="路径_472" data-name="路径 472" d="M111.772,224.6a.327.327,0,0,0,.254-.386h0a.327.327,0,0,0-.386-.256l-3.251.667a.352.352,0,0,0-.272.414h0a.306.306,0,0,0,.361.229Z" transform="translate(-82.753 -171.388)" fill="#764678"/>
      <path id="路径_473" data-name="路径 473" d="M40.97,153.89a.624.624,0,0,1-.43-.146,12.25,12.25,0,0,0-2.612-1.545,8.869,8.869,0,0,0-5.849-.669.64.64,0,1,1-.313-1.238,10.308,10.308,0,0,1,6.713.754,13.252,13.252,0,0,1,2.877,1.716.637.637,0,0,1-.386,1.129Z" transform="translate(-23.883 -114.856)" fill="#ee8062"/>
    </g>
  </g>
</svg>
