<svg id="圖層_2" data-name="圖層 2" xmlns="http://www.w3.org/2000/svg" width="18" height="17.746" viewBox="0 0 18 17.746">
  <g id="Object">
    <path id="Path_613" data-name="Path 613" d="M17.716,17.746H.242A.24.24,0,0,1,0,17.509V2.4A.248.248,0,0,1,.242,2.16H17.716a.248.248,0,0,1,.25.237V17.509a.235.235,0,0,1-.074.171.244.244,0,0,1-.177.066ZM.492,17.288H17.474V2.643H.492Z" transform="translate(0)" fill="#272525"/>
    <path id="Path_614" data-name="Path 614" d="M15.52,4.25A.29.29,0,0,1,15.24,4V.28a.29.29,0,0,1,.57,0V4a.29.29,0,0,1-.29.25Z" transform="translate(-2.131)" fill="#272525"/>
    <path id="Path_615" data-name="Path 615" d="M5.13,4.25A.28.28,0,0,1,4.85,4V.28a.28.28,0,0,1,.56,0V4A.28.28,0,0,1,5.13,4.25Z" transform="translate(-0.678)" fill="#272525"/>
    <path id="Path_616" data-name="Path 616" d="M5.39,15.25v-.4l.57-.5.59-.5.52-.48c.22-.2.38-.36.5-.49L8,12.41a3.39,3.39,0,0,0,.34-.49,2.3,2.3,0,0,0,.27-1A1.23,1.23,0,0,0,8.28,10a1.17,1.17,0,0,0-.95-.36,1.3,1.3,0,0,0-1,.39,1.66,1.66,0,0,0-.38,1H5.39A2,2,0,0,1,6,9.66a1.85,1.85,0,0,1,1.35-.5,1.93,1.93,0,0,1,1.34.46,1.7,1.7,0,0,1,.51,1.32,2.14,2.14,0,0,1-.2.76,3.51,3.51,0,0,1-.35.7,5.3,5.3,0,0,1-.55.69c-.24.26-.44.46-.58.59l-.65.58-.55.49h3v.5Z" transform="translate(-0.904 -1.771)" fill="#272525"/>
    <path id="Path_617" data-name="Path 617" d="M11.52,9.46a2.25,2.25,0,0,1,1.35-.4,1.86,1.86,0,0,1,1.3.44,1.47,1.47,0,0,1,.48,1.12,1.42,1.42,0,0,1-1,1.38h0a1.39,1.39,0,0,1,.84.57,1.87,1.87,0,0,1,.3,1.11,1.56,1.56,0,0,1-.49,1.17,1.89,1.89,0,0,1-1.37.48,2.27,2.27,0,0,1-1.44-.44,1.76,1.76,0,0,1-.63-1.23h.54a1.23,1.23,0,0,0,.46.83,1.61,1.61,0,0,0,1.05.33,1.36,1.36,0,0,0,1-.34,1.22,1.22,0,0,0,.35-.9,1.16,1.16,0,0,0-.47-1,2.62,2.62,0,0,0-1.4-.3h-.18v-.5h.19c1.16,0,1.74-.37,1.74-1.1a1,1,0,0,0-.33-.81,1.33,1.33,0,0,0-.93-.3,1.58,1.58,0,0,0-.95.25,1.07,1.07,0,0,0-.44.74H10.9a1.58,1.58,0,0,1,.62-1.1Z" transform="translate(-1.821 -1.774)" fill="#272525"/>
    <path id="Path_618" data-name="Path 618" d="M17.721,5.53H.466a.311.311,0,0,1,0-.53H17.7a.237.237,0,0,1,.255.125.329.329,0,0,1,0,.321.237.237,0,0,1-.255.125Z" transform="translate(0 -0.699)" fill="#272525"/>
  </g>
</svg>
