<svg xmlns="http://www.w3.org/2000/svg" width="35" height="35" viewBox="0 0 35 35">
  <g id="组_213" data-name="组 213" transform="translate(-625 -6064)">
    <circle id="椭圆_25" data-name="椭圆 25" cx="17.5" cy="17.5" r="17.5" transform="translate(625 6064)" fill="#ff7300"/>
    <g id="noun_safe_3585422" transform="translate(633 6070)">
      <path id="路径_586" data-name="路径 586" d="M15.571,2,5.82,4.145v9.822a8.522,8.522,0,0,0,4.3,7.144l5.453,3.352,5.453-3.352a8.522,8.522,0,0,0,4.3-7.144V4.145Zm8.261,11.967a7.074,7.074,0,0,1-3.594,5.877l-4.667,2.883L10.9,19.844A7.091,7.091,0,0,1,7.31,13.967V5.352l8.261-1.844,8.261,1.844Z" transform="translate(-5.82 -2)" fill="#fff"/>
      <path id="路径_587" data-name="路径 587" d="M18.444,22.5,17.39,23.551l3.676,3.676,7.207-7.2L27.219,18.97l-6.153,6.153Z" transform="translate(-13.081 -12.649)" fill="#fff"/>
    </g>
  </g>
</svg>
