<svg xmlns="http://www.w3.org/2000/svg" width="35" height="35" viewBox="0 0 35 35">
  <g id="组_215" data-name="组 215" transform="translate(-1261 -6064)">
    <circle id="椭圆_27" data-name="椭圆 27" cx="17.5" cy="17.5" r="17.5" transform="translate(1261 6064)" fill="#ff7300"/>
    <g id="noun_high_quality_1587734" data-name="noun_high quality_1587734" transform="translate(1266 6069)">
      <g id="组_212" data-name="组 212" transform="translate(0 0)">
        <path id="路径_588" data-name="路径 588" d="M44.533,31.59A7.408,7.408,0,1,0,37.125,39,7.417,7.417,0,0,0,44.533,31.59Zm-7.408,6.3a6.3,6.3,0,1,1,6.3-6.3A6.309,6.309,0,0,1,37.126,37.892Z" transform="translate(-24.825 -20.867)" fill="#fff"/>
        <path id="路径_589" data-name="路径 589" d="M42.274,31.433l-2.008-3.069L38.317,31.5l-3.54.961,2.376,2.821-.179,3.664,3.418-1.388,3.429,1.3-.264-3.679,2.3-2.859Zm.319,5.775-2.215-.842-2.215.9.115-2.367-1.54-1.829,2.286-.621,1.264-2.03,1.3,1.983,2.321.574-1.485,1.847Z" transform="translate(-28.02 -23.507)" fill="#fff"/>
        <path id="路径_590" data-name="路径 590" d="M37.2,31.377,38.54,30.4l-.132-2.53,1.169-2.18L38.36,23.469,38.467,21l-2.061-1.474-.975-2.274-2.5-.434L31.069,15.19l-2.438.692-2.386-.655-1.9,1.681-2.434.445-.979,2.337-2,1.457.133,2.53L17.9,25.859l1.217,2.223-.108,2.472,1.322.945-3.883,3.883L20.4,36.9l1.521,3.954,4.5-4.5,2.424-.688,2.342.643,4.523,4.523,1.521-3.954,3.954-1.521Zm-15.945,4.67-2.824-1.086,2.726-2.727.887,2.067,2.5.434,1.035.9-3.234,3.234Zm7.584-1.527-2.158.613L25.036,33.7l-2.21-.384-.861-2.007L20.14,30l.1-2.181-1.078-1.968,1.032-1.924-.118-2.24L21.837,20.4l.866-2.069,2.148-.393,1.679-1.488,2.106.578,2.158-.613,1.646,1.434,2.21.384.861,2.007,1.825,1.305-.1,2.181L38.319,25.7l-1.032,1.924.117,2.24-1.764,1.286-.867,2.069-2.148.392L30.946,35.1Zm7.536,1.5-1.086,2.824L32.044,35.6l1.083-.961,2.434-.445.855-2.042L39.2,34.939Z" transform="translate(-16.448 -15.19)" fill="#fff"/>
      </g>
    </g>
  </g>
</svg>
