<svg xmlns="http://www.w3.org/2000/svg" width="35" height="35" viewBox="0 0 35 35">
  <g id="组_214" data-name="组 214" transform="translate(-939 -6064)">
    <circle id="椭圆_26" data-name="椭圆 26" cx="17.5" cy="17.5" r="17.5" transform="translate(939 6064)" fill="#ff7300"/>
    <g id="noun_Bike_3202595" transform="translate(943 6073)">
      <path id="路径_591" data-name="路径 591" d="M24.471,27.008a5.266,5.266,0,0,0-1.173.143L21.41,21.8h1.774a.6.6,0,0,0,.6-.6.587.587,0,0,0-.6-.6h-2.6a.562.562,0,0,0-.486.257.6.6,0,0,0-.086.544l1.116,3.147H12.2l-.629-1.058h1.173a.6.6,0,0,0,.6-.6.587.587,0,0,0-.6-.6H9.566a.6.6,0,0,0-.6.6.587.587,0,0,0,.6.6h.658l1,1.688L9.852,27.494a5.339,5.339,0,0,0-2.146-.458A5.206,5.206,0,1,0,10.853,28.1l1.058-1.774L14.8,31.185a1.7,1.7,0,0,0-.372,1.058,1.688,1.688,0,1,0,3.376,0,1.85,1.85,0,0,0-.343-1.03l3.462-5.493h.658l.658,1.831a5.161,5.161,0,1,0,2.231-.544ZM11.74,32.215A4.055,4.055,0,1,1,9.251,28.5L7.764,31.013H7.735a1.227,1.227,0,1,0,1.058.6L10.281,29.1A4.014,4.014,0,0,1,11.74,32.215Zm4.692-1.659a1.393,1.393,0,0,0-.343-.029.882.882,0,0,0-.286.029l-2.889-4.863h6.608Zm8.039,5.693a4.029,4.029,0,0,1-4.034-4.034,4.1,4.1,0,0,1,2.146-3.576l.973,2.775a1.175,1.175,0,0,0-.315.8,1.23,1.23,0,1,0,2.46,0,1.2,1.2,0,0,0-1.03-1.2L23.7,28.238a3.551,3.551,0,0,1,.772-.086,4.048,4.048,0,0,1,0,8.1Z" transform="translate(-2.5 -20.6)" fill="#fff"/>
    </g>
  </g>
</svg>
